<?xml version="1.0" encoding="utf-8"?>
<!-- Generator: Adobe Illustrator 26.1.0, SVG Export Plug-In . SVG Version: 6.00 Build 0)  -->
<svg version="1.1" id="Layer_1" xmlns="http://www.w3.org/2000/svg" xmlns:xlink="http://www.w3.org/1999/xlink" x="0px" y="0px"
	 viewBox="0 0 1200 1696.5" style="enable-background:new 0 0 1200 1696.5;" xml:space="preserve">
<style type="text/css">
	.st0{fill:#DBE1F9;}
	.st1{fill:#7F8CFF;}
	.st2{fill:#525FFF;}
	.st3{fill:#9CACFF;}
	.st4{fill:#1739DB;}
	.st5{fill:#FFFFFF;}
	.st6{fill:#F89B00;}
	.st7{fill:#FFE1A0;}
	.st8{fill:#EEBE6D;}
	.st9{fill:#6FC7FF;}
	.st10{fill:#007FBB;}
	.st11{fill:#FF4852;}
	.st12{fill:#FF323F;}
	.st13{fill:#EA0000;}
	.st14{fill:#00D1E4;}
	.st15{fill:#EF9A3E;}
	.st16{fill:#FFC684;}
	.st17{fill:#FFDBB5;}
	.st18{fill:#00A7A5;}
	.st19{fill:#D960FF;}
	.st20{fill:#C450F6;}
	.st21{fill:#7600C8;}
	.st22{fill:#D67F23;}
	.st23{fill:#021D41;}
</style>
<g>
	<path class="st0" d="M329,914.3c0-7.2-27.5-13.1-61.4-13.1c-33.9,0-61.4,5.9-61.4,13.1c0,7.2,27.5,13.1,61.4,13.1
		C301.6,927.4,329,921.6,329,914.3z"/>
	<path class="st1" d="M352.4,837.4c-0.3,1-0.6,2-1,3c-1.1,2.9-2.3,5.8-3.6,8.7c0,0,0,0,0,0c-0.3,0.6-0.6,1.3-0.9,1.9
		c-2,4.3-4.2,8.4-6.4,12.5c-0.5,0.9-1,1.8-1.5,2.7c-3.7,6.7-7.6,13.3-11.8,19.8c-2.8,4.4-5.6,8.7-8.7,12.9c-1.1,1.5-2.3,3-3.5,4.5
		c0,0,0,0,0,0c-0.2,0.2-0.4,0.5-0.6,0.7c-1.5,1.8-3.1,3.7-4.9,5.2c-1.9,1.6-4.2,2.6-6.5,3.5c-7.8,3.1-16.3,4.2-24.6,4.6
		c-11.4,0.6-22.9-0.1-34-2.5c-4.3-1-8.6-2.2-12.7-4c-0.4-0.2-0.7-0.4-1.1-0.6c-0.2-0.1-0.4-0.2-0.5-0.3c-0.4-0.2-0.7-0.5-1-0.7
		c-0.1-0.1-0.3-0.2-0.4-0.4c0,0-0.1-0.1-0.1-0.1c-0.3-0.2-0.6-0.5-0.8-0.7c-0.7-0.6-1.3-1.3-1.9-2c-0.5-0.6-1-1.2-1.5-1.8
		c0,0-0.1-0.1-0.1-0.1c-0.1-0.1-0.2-0.3-0.4-0.5c-0.1-0.1-0.2-0.2-0.3-0.3c-0.1-0.1-0.2-0.2-0.3-0.4c-0.1-0.1-0.2-0.2-0.3-0.4
		c-0.2-0.3-0.4-0.5-0.5-0.6c0-0.1-0.1-0.1-0.1-0.1c-2.7-3.4-5.3-7-7.7-10.7c-0.2-0.3-0.4-0.7-0.6-1l0,0c-2.4-3.7-4.7-7.4-6.9-11.1
		c-2.3-3.9-4.6-7.8-6.8-11.8c-2.5-4.6-5-9.2-7.2-14c-0.6-1.2-1.2-2.4-1.7-3.7c-1.1-2.4-2.1-4.8-3.1-7.2c-0.9-2.3-1.8-4.7-2.3-7.2
		c0.8,1.9,2.5,3.4,4,4.6c2,1.6,4.1,2.8,6.3,4.1c7.2,4.1,15.2,6.5,23.2,8.5c4.2,1.1,8.4,2.1,12.8,2.7c17.7,2.5,35.5,4,53.4,3.5
		c14.9-0.5,30.4-1.7,44.5-6.8c3.4-1.2,6.8-2.7,10-4.4c3.1-1.7,6.4-3.6,9.1-6.1C350.2,840.4,351.5,839,352.4,837.4z"/>
	<path class="st2" d="M347.9,849.1c-0.3,0.6-0.6,1.3-0.9,1.9c-2,4.3-4.2,8.4-6.4,12.5c-0.5,0.9-1,1.8-1.5,2.7
		c-3.7,6.7-7.6,13.4-11.8,19.8c-2.8,4.4-5.6,8.7-8.7,12.9c-1.1,1.5-2.3,3-3.5,4.5c0,0,0,0,0,0c-0.2,0.2-0.4,0.5-0.6,0.7
		c-1.5,1.8-3.1,3.7-4.9,5.2c-1.9,1.6-4.2,2.6-6.5,3.5c-7.8,3.1-16.3,4.2-24.6,4.7c-11.4,0.6-22.9-0.1-34-2.5c-4.3-1-8.7-2.2-12.7-4
		c-0.4-0.2-0.7-0.4-1.1-0.6c-0.2-0.1-0.4-0.2-0.5-0.3c-0.3-0.2-0.7-0.5-1-0.7c-0.1-0.1-0.3-0.2-0.4-0.4c0,0-0.1-0.1-0.1-0.1
		c-0.3-0.2-0.5-0.5-0.8-0.7c-0.7-0.6-1.3-1.3-1.9-2c-0.5-0.6-1-1.2-1.5-1.8c0,0-0.1-0.1-0.1-0.1c-0.1-0.1-0.2-0.3-0.4-0.5
		c-0.1-0.1-0.2-0.2-0.3-0.4c-0.1-0.1-0.2-0.2-0.3-0.4c-0.1-0.1-0.2-0.2-0.3-0.4c-0.2-0.3-0.4-0.5-0.5-0.6c-0.1-0.1-0.1-0.1-0.1-0.1
		C280,898.6,335.9,867.6,347.9,849.1z"/>
	<path class="st3" d="M352.4,837.4c-0.3,1-0.4,2.1-1,3c-12,17.8-42.1,27.1-83.5,30.7c-30.1,2.6-56.8,0.9-67.7-3.6
		c-2.5-4.6-5-9.2-7.2-14c-0.6-1.2-1.2-2.4-1.7-3.7c-1.1-2.4-2.1-4.8-3.1-7.2c-0.9-2.3-1.8-4.7-2.3-7.2c0.8,1.9,2.5,3.4,4,4.6
		c2,1.6,4.1,2.8,6.3,4.1c7.2,4.1,15.2,6.5,23.2,8.5c4.2,1.1,8.4,2.1,12.8,2.7c17.7,2.5,35.5,4,53.4,3.5c14.9-0.5,30.4-1.7,44.5-6.8
		c3.4-1.2,6.8-2.7,10-4.4c3.1-1.7,6.4-3.6,9.1-6.1C350.2,840.4,351.5,838.9,352.4,837.4z"/>
	<path class="st4" d="M353.4,835c-0.2,0.8-0.5,1.6-1,2.4c0,0,0,0,0,0c-0.9,1.5-2.2,2.9-3.4,4c-2.7,2.4-5.9,4.4-9.1,6.1
		c-3.2,1.7-6.6,3.2-10,4.4c-14.1,5-29.6,6.3-44.5,6.8c-17.9,0.5-35.7-0.9-53.4-3.5c-4.3-0.6-8.5-1.6-12.8-2.7c-8-2-16-4.4-23.2-8.5
		c-2.2-1.2-4.3-2.5-6.3-4.1c-1.6-1.2-3.2-2.7-4-4.6c0,0,0,0,0,0s0,0,0,0c-0.1-0.3-0.3-0.6-0.3-1c-1.3-5,4.8-7.9,8.5-9.6
		c5.2-2.4,10.9-4,16.5-5.3c15.3-3.5,31.2-4.9,47-5.2c16-0.3,32.1,0.6,48,2.4c9.8,1.1,19.7,2.6,29.2,5.4c5,1.5,10.2,3.2,14.5,6.3
		c1.8,1.3,4,3.1,4.4,5.5C353.5,834.2,353.5,834.6,353.4,835z"/>
	<path class="st5" d="M320.6,823.6c10.1,2,21.6,5.5,25.9,9.5c3.7,3.4-4,8.1-10.8,10.7c-23.6,9.2-42.5,11.3-67.6,10.8
		c-16-0.4-39.1-4.4-50.4-7c-10.4-2.4-25.8-9.1-26.2-14.6c0.4-5.3,23.6-11.9,41.6-13.7C254.8,817.2,282.2,815.9,320.6,823.6z"/>
	<path class="st2" d="M193.7,850.6c6.3,4.1,13.7,6.5,20.7,9.1c0.9,0.3,1.3-1.1,0.4-1.4c-7-2.5-14.1-4.8-20.4-8.9
		C193.6,848.8,192.8,850.1,193.7,850.6L193.7,850.6z"/>
	<path class="st2" d="M197.8,859.7c11.8,5.9,25,9.5,38.1,11.3c0.9,0.1,1.4-1.3,0.4-1.4c-12.9-1.7-26-5.3-37.7-11.1
		C197.7,857.9,197,859.2,197.8,859.7L197.8,859.7z"/>
	<path class="st2" d="M220.6,861.3c6.2,1.5,12.4,2.7,18.7,3.6c0.9,0.1,1.4-1.3,0.4-1.4c-6.3-0.9-12.5-2-18.7-3.6
		C220.1,859.6,219.7,861.1,220.6,861.3L220.6,861.3z"/>
	<path class="st1" d="M270,825.1c0.3-0.2,0.6-0.4,0.9-0.6c0.1-0.1,0.3-0.2,0.4-0.3c0.1-0.1,0.2-0.3,0.2-0.4c0.1-0.2,0.1-0.3,0-0.5
		c0-0.2-0.1-0.3-0.1-0.5c-0.1-0.1-0.1-0.2-0.2-0.3c-0.2-0.2-0.3-0.3-0.6-0.3c-0.1,0-0.2,0-0.3,0c-0.2,0-0.4,0.1-0.6,0.2
		c-0.3,0.2-0.6,0.4-0.9,0.6c-0.1,0.1-0.3,0.2-0.4,0.3c-0.1,0.1-0.2,0.3-0.2,0.4c-0.1,0.2-0.1,0.3,0,0.5c0,0.2,0.1,0.3,0.1,0.5
		c0.1,0.1,0.1,0.2,0.2,0.3c0.2,0.2,0.3,0.3,0.6,0.3c0.1,0,0.2,0,0.3,0C269.6,825.2,269.8,825.2,270,825.1L270,825.1z"/>
	<path class="st1" d="M275.3,829c0.3-0.2,0.6-0.4,0.9-0.6c0.1-0.1,0.3-0.2,0.4-0.3c0.1-0.1,0.2-0.3,0.2-0.4c0.1-0.2,0.1-0.3,0-0.5
		c0-0.2-0.1-0.3-0.1-0.5c-0.1-0.1-0.1-0.2-0.2-0.3c-0.2-0.2-0.3-0.3-0.6-0.3c-0.1,0-0.2,0-0.3,0c-0.2,0-0.4,0.1-0.6,0.2
		c-0.3,0.2-0.6,0.4-0.9,0.6c-0.1,0.1-0.3,0.2-0.4,0.3c-0.1,0.1-0.2,0.3-0.2,0.4c-0.1,0.2-0.1,0.3,0,0.5c0,0.2,0.1,0.3,0.1,0.5
		c0.1,0.1,0.1,0.2,0.2,0.3c0.2,0.2,0.3,0.3,0.6,0.3c0.1,0,0.2,0,0.3,0C274.9,829.2,275.1,829.1,275.3,829L275.3,829z"/>
	<path class="st1" d="M301.7,838.1c0.3-0.2,0.6-0.4,0.9-0.6c0.1-0.1,0.3-0.2,0.4-0.3c0.1-0.1,0.2-0.3,0.2-0.4c0.1-0.2,0.1-0.3,0-0.5
		c0-0.2-0.1-0.3-0.1-0.5c-0.1-0.1-0.1-0.2-0.2-0.3c-0.2-0.2-0.3-0.3-0.6-0.3c-0.1,0-0.2,0-0.3,0c-0.2,0-0.4,0.1-0.6,0.2
		c-0.3,0.2-0.6,0.4-0.9,0.6c-0.1,0.1-0.3,0.2-0.4,0.3c-0.1,0.1-0.2,0.3-0.2,0.4c-0.1,0.2-0.1,0.3,0,0.5c0,0.2,0.1,0.3,0.1,0.5
		c0.1,0.1,0.1,0.2,0.2,0.3c0.2,0.2,0.3,0.3,0.6,0.3c0.1,0,0.2,0,0.3,0C301.3,838.3,301.6,838.2,301.7,838.1L301.7,838.1z"/>
	<path class="st1" d="M304.7,841.9c0.3-0.2,0.6-0.4,0.9-0.6c0.1-0.1,0.3-0.2,0.4-0.3c0.1-0.1,0.2-0.3,0.2-0.4c0.1-0.2,0.1-0.3,0-0.5
		c0-0.2-0.1-0.3-0.1-0.5c-0.1-0.1-0.1-0.2-0.2-0.3c-0.2-0.2-0.3-0.3-0.6-0.3c-0.1,0-0.2,0-0.3,0c-0.2,0-0.4,0.1-0.6,0.2
		c-0.3,0.2-0.6,0.4-0.9,0.6c-0.1,0.1-0.3,0.2-0.4,0.3c-0.1,0.1-0.2,0.3-0.2,0.4c-0.1,0.2-0.1,0.3,0,0.5c0,0.2,0.1,0.3,0.1,0.5
		c0.1,0.1,0.1,0.2,0.2,0.3c0.2,0.2,0.3,0.3,0.6,0.3c0.1,0,0.2,0,0.3,0C304.3,842.1,304.5,842,304.7,841.9L304.7,841.9z"/>
	<path class="st6" d="M237.3,780.4c-0.9-1.7-1.9-3.4-2.8-5.1c-0.3-0.6-1.2-0.8-1.7-0.4c-0.6,0.4-0.8,1.1-0.4,1.7
		c0.9,1.7,1.9,3.4,2.8,5.1c0.3,0.6,1.2,0.8,1.7,0.4C237.4,781.7,237.6,781,237.3,780.4L237.3,780.4z"/>
	<path class="st6" d="M243.9,776.9c-0.1-1.6-0.2-3.2-0.3-4.8c0-0.7-0.5-1.3-1.2-1.2c-0.6,0-1.3,0.6-1.2,1.2c0.1,1.6,0.2,3.2,0.3,4.8
		c0,0.7,0.5,1.3,1.2,1.2C243.3,778.1,243.9,777.6,243.9,776.9L243.9,776.9z"/>
	<path class="st6" d="M232.8,785.1c-2.1-0.9-4.2-1.6-6.4-2c-0.6-0.1-1.4,0.2-1.5,0.9c-0.1,0.6,0.2,1.4,0.9,1.5
		c1,0.2,2.1,0.4,3.1,0.7c0.5,0.1,1,0.3,1.5,0.5c0.3,0.1,0.5,0.2,0.8,0.3c0.1,0,0.2,0.1,0.3,0.1c0,0,0.5,0.2,0.2,0.1
		c0.3,0.1,0.6,0.2,1,0.1c0.3-0.1,0.6-0.3,0.7-0.6C233.5,786.2,233.4,785.3,232.8,785.1L232.8,785.1z"/>
	<path class="st7" d="M281.1,839.9c-0.4,1.2-1.1,2.3-2.1,3.1c-2.7,2.2-6.6,2-9.9,1.8c-0.8-0.1-1.8-0.1-2.7-0.4
		c-0.3-0.1-0.6-0.3-0.8-0.5c-0.9-0.8-0.6-2-0.1-2.8c0.1-0.1,0.2-0.2,0.3-0.3c0.5-0.6,1.2-0.9,1.9-1.3c0.6-0.4,1-0.9,1.5-1.4
		c1.1-1.2,2.4-2.4,3.8-3.1c0.8-0.4,1.5-0.6,2.4-0.7c0.8-0.1,1.7,0.1,2.5,0.3c1.2,0.2,2.4,0.5,3.1,1.6c0.1,0.1,0.1,0.2,0.2,0.3
		C281.6,837.5,281.4,838.9,281.1,839.9z"/>
	<path class="st8" d="M281.1,839.9c-0.4,1.2-1.1,2.3-2.1,3.1c-2.7,2.2-6.6,2-9.9,1.8c-0.8-0.1-1.8-0.1-2.7-0.4c7.3-1.9,9-7,14.8-8
		C281.6,837.5,281.4,838.9,281.1,839.9z"/>
	<path class="st7" d="M284.9,843.3c0.4,1.2,1.1,2.3,2.1,3.1c2.7,2.2,6.6,2,9.9,1.8c0.8-0.1,1.8-0.1,2.7-0.4c0.3-0.1,0.6-0.3,0.8-0.5
		c0.9-0.8,0.6-2,0.1-2.8c-0.1-0.1-0.2-0.2-0.3-0.3c-0.5-0.6-1.2-0.9-1.9-1.3c-0.6-0.4-1-0.9-1.5-1.4c-1.1-1.2-2.4-2.4-3.8-3.1
		c-0.8-0.4-1.5-0.6-2.4-0.7c-0.8-0.1-1.7,0.1-2.5,0.3c-1.2,0.2-2.4,0.5-3.1,1.6c-0.1,0.1-0.1,0.2-0.2,0.3
		C284.4,840.9,284.6,842.3,284.9,843.3z"/>
	<path class="st8" d="M284.9,843.3c0.4,1.2,1.1,2.3,2.1,3.1c2.7,2.2,6.6,2,9.9,1.8c0.8-0.1,1.8-0.1,2.7-0.4c-7.3-1.9-9-7-14.8-8
		C284.4,840.9,284.6,842.3,284.9,843.3z"/>
	<path class="st9" d="M289.3,782.2c-0.1-1.3-0.5-2.5-1-3.6c-0.7-1.7-1.5-3.4-2.3-5c-1.1-2-2.2-4-3.4-6c-0.5-0.8-1.7-0.8-2.2,0
		c-2.2,3.5-4.2,7.1-5.7,11c-1,2.5-1.4,4.8-0.2,7.3c1.4,3,4.8,4.8,8.1,4.4c3.9-0.5,6.7-3.9,6.8-7.7
		C289.4,782.4,289.4,782.3,289.3,782.2z"/>
	<path class="st10" d="M284.3,782.9c0,0.2,0,0.4,0,0.5c0-0.1,0-0.2,0-0.3c0,0.3-0.1,0.6-0.3,0.9c0-0.1,0.1-0.2,0.1-0.3
		c-0.1,0.3-0.3,0.6-0.5,0.9c0.1-0.1,0.1-0.2,0.2-0.3c-0.2,0.3-0.4,0.5-0.7,0.7c0.1-0.1,0.2-0.1,0.3-0.2c-0.3,0.2-0.6,0.4-0.9,0.5
		c0.1,0,0.2-0.1,0.3-0.1c-0.3,0.1-0.6,0.2-0.9,0.3c0.1,0,0.2,0,0.3,0c-0.2,0-0.3,0-0.5,0c-0.7,0-1.3,0.6-1.2,1.2
		c0,0.7,0.5,1.3,1.2,1.2c1.3,0,2.6-0.5,3.6-1.5c0.9-0.9,1.5-2.2,1.5-3.6c0-0.7-0.6-1.3-1.2-1.2C284.8,781.7,284.3,782.2,284.3,782.9
		L284.3,782.9z"/>
	<path class="st11" d="M345.1,817.9c-0.6,3.3-1.9,6.8-4.1,9.3c-7.4,8.7-14.9,13.3-25.6,15c-0.4,0.1-0.7,0.1-1,0.1
		c-0.2,0-0.3,0-0.5,0c0,0,0,0,0,0c-0.2,0-0.3-0.1-0.4-0.1c-0.2-0.1-0.5-0.2-0.6-0.3c-0.3-0.2-0.5-0.5-0.5-0.5
		c-2.6-7.3-3.3-15.4-1.9-23c0.6-3.8,1.8-7.7,4.2-10.7c1.8-2.3,4.3-4.1,7-4.8c1-0.2,2-0.4,3-0.3c0.1,0,0.2,0,0.3,0
		c1.8,0.1,3.5,0.7,5.1,1.4c1.8,0.8,3.6,1.7,5.5,2.3c2.2,0.7,4.6,1,6.5,2.4c1.4,1,2.4,2.5,2.9,4.2c0,0,0,0,0,0
		c0.1,0.2,0.1,0.5,0.2,0.7c0.1,0.2,0.1,0.5,0.1,0.7c0,0.2,0.1,0.4,0.1,0.5C345.3,816,345.3,817,345.1,817.9z"/>
	<path class="st11" d="M229.9,827.2c0.8,1.2,1.1,3.4,0.3,4.7c-0.8,1.3-2.8,2.7-4.5,2.1c-0.1,1.6-1.2,5.2-4.4,5.7
		c-1.6,0.2-3.1-0.3-4.3-1.3c0,0,0,0,0,0c-1.1,1.3-3.4,1.3-5.4,0.4c-1.1-0.5-3.7-3-3.2-5.5c-1.3,1.3-4.3,1.1-5.9-0.1
		c-1.3-1-1.6-3.3-1.3-4.7c0.4-1.6,1.2-2.7,2.4-3.4l-0.3-0.1c0,0-0.6-0.9-0.6-2.2c0-0.3,0-0.7,0.1-1c1.9-0.2,3.8-0.6,5.5-1.3
		c4-1.8,6.6-5.1,8.2-9c0.5-1,0.8-2.1,1.2-3.1c0.2-0.6,0.3-1.2,0.4-1.8c0.2-0.1,0.5-0.2,0.7-0.3c1.2-0.4,2.6-0.3,3.7-0.1
		c2.1,0.4,3.3,2.9,2.9,5c2-0.9,5-0.2,6.2,1.7c1.1,1.9,0.5,4.7-1.3,6c0.9-0.2,3.4,0.7,4,2.3C235.6,824.5,232.7,828.1,229.9,827.2z"/>
	<path class="st12" d="M229.9,827.2c0.9,1.3,1.1,3.4,0.3,4.7c-0.8,1.3-2.8,2.7-4.5,2.1c-0.1,1.6-1.2,5.2-4.5,5.7
		c-1.5,0.2-3.1-0.3-4.3-1.3c0.6-0.8,1.3-1.4,2.1-2c0.4-0.3,0.8-0.6,0.9-1c0.3-0.7-0.1-1.4-0.1-2.2c0-1.5,1.3-2.5,2.5-3.3
		c1.2-0.8,2.6-1.8,2.8-3.2c0.1-1.3-0.8-2.5-1.6-3.5c-0.8-1-1.6-2.4-1-3.6c0.4-0.8,1.2-1.3,1.6-2.2c0.4-1,0-2.1-0.8-2.8
		c-0.8-0.7-1.8-1.1-2.8-1.3c-1-0.3-2-0.5-3-0.9c-0.4-0.2-0.9-0.5-1.2-0.9c0.5-1,0.8-2.1,1.2-3.1c0.2-0.6,0.3-1.2,0.4-1.8v0
		c1.4-0.7,3-0.6,4.4-0.3c2.1,0.4,3.3,2.9,2.9,5c2-0.9,5-0.2,6.2,1.7c1.1,1.9,0.5,4.7-1.3,6c0.9-0.2,3.4,0.7,4,2.3
		C235.6,824.5,232.7,828.1,229.9,827.2z"/>
	<path class="st13" d="M221.6,823.9c-0.5-1.1-1.3-2-2.4-2.6c-1.2-0.7-2.6-0.8-4-0.4c-0.1,0-0.2,0.1-0.3,0.1c-2.2,1-3.8,3.4-3.8,5.8
		c-0.1,2.4,1.3,4.8,3.5,5.9c2.4,1.2,5.6,0.8,7.2-1.6c0.7-1,0.8-2.5,0.8-3.7C222.5,826.3,222.2,825.1,221.6,823.9z M219.9,829.4
		c-0.2,0.6-0.7,1.1-1.3,1.4c-0.8,0.3-1.7,0.3-2.4,0c-1.4-0.6-2.4-2.1-2.5-3.5c-0.1-0.9,0.2-1.7,0.6-2.5c0.4-0.7,1-1.2,1.8-1.5
		c0.7-0.2,1.3-0.1,1.8,0.1c0.6,0.3,1,0.7,1.3,1.3C220,826,220.3,827.9,219.9,829.4z"/>
	<path class="st13" d="M219.7,819.3c0-0.1,0.1-0.2,0.2-0.3c-0.2,0.3,0,0,0.1-0.1c0,0,0.1-0.1,0.1-0.1c-0.1,0.1-0.1,0.1,0,0
		c0.1-0.1,0.2-0.1,0.4-0.2c0.1,0,0.1-0.1,0.2-0.1c-0.1,0.1-0.1,0.1,0,0c0.2,0,0.3-0.1,0.5-0.1c0,0,0.5-0.1,0.3-0.1
		c0.1,0,0.3,0,0.4,0c0.7,0,1.3,0.1,1.9,0.4c0.3,0.1,0.5,0.3,0.8,0.5c0.1,0.1,0.1,0.1,0,0c0.1,0,0.1,0.1,0.2,0.1
		c0.1,0.1,0.2,0.2,0.3,0.3c0.1,0.1,0.2,0.2,0.3,0.3c-0.2-0.2,0.1,0.2,0.1,0.2c0.1,0.1,0.2,0.3,0.2,0.4c0,0,0.2,0.5,0.1,0.2
		c0.1,0.3,0.2,0.5,0.2,0.8c0-0.3,0,0.1,0,0.2c0,0.1,0,0.3,0,0.4c0,0.1-0.1,0.4,0,0.2c0,0.1-0.1,0.3-0.1,0.4c0,0.1-0.1,0.3-0.1,0.4
		c-0.1,0.1-0.1,0.1,0,0c0,0.1-0.1,0.1-0.1,0.2c-0.1,0.1-0.1,0.2-0.2,0.4c-0.1,0.1-0.1,0.1,0,0c0,0-0.1,0.1-0.1,0.1
		c0,0-0.1,0.1-0.1,0.1c0.1-0.1,0.1-0.1,0,0c-0.1,0.1-0.2,0.1-0.3,0.2c-0.6,0.3-0.8,1.2-0.4,1.7c0.4,0.6,1.1,0.7,1.7,0.4
		c1.1-0.5,1.8-1.7,2.1-2.9c0.3-1.3,0.2-2.6-0.3-3.8c-1.1-2.7-4.2-4.1-7-3.7c-1.3,0.2-2.8,0.9-3.4,2.1c-0.3,0.6-0.2,1.4,0.4,1.7
		C218.5,820.1,219.4,819.9,219.7,819.3L219.7,819.3z"/>
	<path class="st13" d="M218.8,806.2c-0.1,1.3,0,6.3-3.4,11.5c-3.4,5.4-10.2,4.8-12.8,5.1c0-0.3,0-0.7,0.1-1c1.9-0.2,3.8-0.6,5.5-1.3
		c5.1-2.2,7.8-7,9.4-12.1c0.2-0.6,0.3-1.2,0.4-1.8C218.4,806.3,218.6,806.2,218.8,806.2z"/>
	<path class="st14" d="M218.2,806.4L218.2,806.4c-0.1,0.6-0.3,1.3-0.4,1.8c-0.3,1.1-0.7,2.1-1.2,3.1c-1.7,3.8-4.2,7.2-8.2,9
		c-1.7,0.8-3.6,1.2-5.5,1.3c-1,0.1-2,0.1-3,0.1c-3-0.1-5.8-1.2-7.4-3.8c-0.9-1.3,0.9-2.3,2-1.5c1.2,0.9,3.4-2.6,4.1-3.1
		c1-0.8,2.4-1.2,3.7-1.1c-0.3-1.2-1.5-2-2.5-3c-1.8-1.6-2.8-3.6-2.7-6.1c0-0.7,0.8-1.5,1.6-1.2c2.5,1,5.2,0.5,7.7,1.5
		c1.1,0.5,2.1,1.1,2.8,2c0.7-0.9,1.6-1.6,2.6-2.4c1.6-1.1,3.1-2.1,3.1-4.2c0-1.3,1.7-1.6,2.3-0.6
		C218.6,800.6,218.7,803.7,218.2,806.4z"/>
	<path class="st15" d="M264.5,834.8c-0.6,3.2-3,5.6-5.9,7.1c-3.1,1.7-6.5,2.2-10,1.6c-0.2,0-0.4-0.1-0.6-0.1
		c-1.9-0.5-3.6-1.4-5.4-2.2c-1.6-0.7-3.3-1.4-5-1.9c0.1,0,0.2,0,0.3,0c2.4,0.2,4.8,1,7.2,1.2c2.8,0.3,5.6,0.1,8.3-0.8
		c4.3-1.4,8.8-4.2,10-8.9c0.6-2.2,0.4-4.6-0.7-6.5c0,0,0-0.1-0.1-0.1c0.1,0.1,0.2,0.2,0.3,0.3c0.1,0.1,0.1,0.3,0.2,0.4
		C264.6,828,265.1,831.5,264.5,834.8z"/>
	<path class="st16" d="M263.5,830.9c-1.2,4.7-5.7,7.5-10,8.9c-2.7,0.9-5.5,1.1-8.3,0.8c-2.4-0.3-4.8-1-7.2-1.2c-0.1,0-0.2,0-0.3,0
		c-0.1,0-0.2,0-0.2-0.1c-0.1-0.1-0.2-0.1-0.3-0.2c0,0,0,0-0.1,0c0,0-0.1,0-0.1-0.1c0,0,0-0.1-0.1-0.1c0-0.1-0.1-0.1-0.1-0.1
		c-0.1-0.2-0.2-0.4-0.2-0.6c0,0,0-0.1,0-0.1c0,0,0-0.1,0-0.1c0,0,0,0,0-0.1c0,0,0,0,0,0c0.1-0.2,0.2-0.4,0.4-0.6
		c1-1.1,1.8-2.4,1.9-3.9c0.1-1.4,0-2.9,0.3-4.3c0.5-2.5,1.8-5,3.7-6.8c3.8-3.6,9.2-4.1,14-2.2c2.2,0.9,4.4,2.1,5.7,4.1l0,0
		c0,0,0,0.1,0.1,0.1C263.9,826.3,264,828.7,263.5,830.9z"/>
	<path class="st17" d="M253.4,832.8c-2.5,2.6-6.3,1.9-9.5,2.3c-0.3,0-0.6-0.1-0.8-0.3c0,0-0.1-0.1-0.1-0.1s-0.1-0.1-0.1-0.1
		c-0.1-0.2-0.2-0.5-0.2-0.7c0-0.2,0.1-0.4,0.2-0.6c0,0,0-0.1,0-0.1c0.7-1.5,1.4-2.9,2-4.4c0.6-1.3,1.1-2.6,2.2-3.5
		c1.9-1.6,4.5-1.6,6.5-2.9c0.6-0.4,1.2-0.2,1.6,0.3c0.2,0.2,0.3,0.5,0.3,0.8C255.8,826.7,255.8,830.3,253.4,832.8z"/>
	<path class="st15" d="M253.4,832.8c-2.5,2.6-6.3,1.9-9.5,2.3c-0.3,0-0.6-0.1-0.8-0.3c0.4-0.7,1.7-1.8,1.7-1.8l10.4-10.3
		c0.2,0.2,0.3,0.5,0.3,0.8C255.8,826.7,255.8,830.3,253.4,832.8z"/>
	<path class="st12" d="M345.1,817.9c-0.6,3.3-1.9,6.8-4.1,9.3c-7.4,8.7-14.9,13.3-25.6,15c-0.4,0.1-0.7,0.1-1,0.1
		c-0.2,0-0.3,0-0.5,0c0,0,0,0,0,0c-0.2,0-0.3-0.1-0.4-0.1c-0.2-0.1-0.5-0.2-0.6-0.3c3.8-2.3,23.3-14.8,19.8-26.3
		c-0.9-2.9-4-3.9-6.5-5.8c-3.7-2.9-6.8-6.1-4.8-6.8c0.1,0,0.2-0.1,0.3-0.1c1-0.2,2-0.4,3-0.3c0.1,0,0.2,0,0.3,0
		c1.8,0.1,3.5,0.7,5.1,1.4c1.8,0.8,3.6,1.7,5.5,2.3c2.2,0.7,4.6,1,6.5,2.4c1.4,1,2.4,2.5,2.9,4.2c0,0,0,0,0,0c0,0,0,0.1,0,0.1
		c0.1,0.2,0.1,0.4,0.2,0.6c0.1,0.2,0.1,0.5,0.1,0.7c0,0.2,0.1,0.4,0.1,0.5C345.3,816,345.3,817,345.1,817.9z"/>
	<path class="st13" d="M322.4,812.9c0.1-0.3,0.1-0.5,0.2-0.8c0.1-0.2,0.1-0.3,0-0.5c0-0.2-0.1-0.3-0.1-0.5c-0.1-0.1-0.2-0.3-0.3-0.4
		c-0.1-0.1-0.3-0.2-0.4-0.2c-0.1,0-0.2,0-0.3,0c-0.2,0-0.4,0.1-0.6,0.2c-0.1,0.1-0.2,0.1-0.3,0.2c-0.2,0.2-0.3,0.3-0.3,0.6
		c-0.1,0.3-0.1,0.5-0.2,0.8c-0.1,0.2-0.1,0.3,0,0.5c0,0.2,0.1,0.3,0.1,0.5c0.1,0.1,0.2,0.3,0.3,0.4c0.1,0.1,0.3,0.2,0.4,0.2
		c0.1,0,0.2,0,0.3,0c0.2,0,0.4-0.1,0.6-0.2c0.1-0.1,0.2-0.1,0.3-0.2C322.3,813.3,322.4,813.1,322.4,812.9L322.4,812.9z"/>
	<path class="st13" d="M332.6,817.8c0.4-0.5,0.7-1,1.1-1.5c0.1-0.1,0.1-0.3,0.1-0.5c0-0.2,0-0.3,0-0.5c0-0.2-0.1-0.3-0.2-0.4
		c-0.1-0.1-0.2-0.2-0.4-0.3c-0.3-0.2-0.6-0.2-1-0.1c-0.1,0-0.2,0.1-0.3,0.1c-0.2,0.1-0.3,0.3-0.4,0.4c-0.4,0.5-0.7,1-1.1,1.5
		c-0.1,0.1-0.1,0.3-0.1,0.5c0,0.2,0,0.3,0,0.5c0,0.2,0.1,0.3,0.2,0.4c0.1,0.1,0.2,0.2,0.4,0.3c0.3,0.2,0.6,0.2,1,0.1
		c0.1,0,0.2-0.1,0.3-0.1C332.3,818.1,332.4,818,332.6,817.8L332.6,817.8z"/>
	<path class="st13" d="M324.5,820c-0.1,0.8-0.3,1.5-0.4,2.3c-0.1,0.3-0.1,0.7,0.1,1c0.2,0.3,0.4,0.5,0.7,0.6c0.3,0.1,0.7,0.1,1-0.1
		c0.3-0.2,0.5-0.4,0.6-0.7c0.1-0.8,0.3-1.5,0.4-2.3c0.1-0.3,0.1-0.7-0.1-1c-0.2-0.3-0.4-0.5-0.7-0.6c-0.3-0.1-0.7-0.1-1,0.1
		C324.8,819.4,324.5,819.7,324.5,820L324.5,820z"/>
	<path class="st13" d="M316.3,824c-0.5,0.9-0.9,1.8-1.3,2.8c-0.1,0.3,0,0.7,0.1,1c0.2,0.3,0.4,0.5,0.7,0.6c0.3,0.1,0.7,0.1,1-0.1
		c0.3-0.2,0.5-0.4,0.6-0.7c0.1-0.3,0.2-0.6,0.4-0.9c0,0.1-0.1,0.2-0.1,0.3c0.2-0.5,0.5-1,0.8-1.5c0.2-0.3,0.2-0.7,0.1-1
		c-0.1-0.3-0.3-0.6-0.6-0.7c-0.3-0.2-0.6-0.2-1-0.1C316.7,823.5,316.4,823.7,316.3,824L316.3,824z"/>
	<path class="st13" d="M329.6,825.3c0,0.1-0.1,0.2-0.1,0.3C329.6,825.5,329.6,825.4,329.6,825.3c-0.1,0.2-0.2,0.4-0.3,0.6
		c0.1-0.1,0.1-0.2,0.2-0.3c0,0,0,0-0.1,0.1c-0.1,0.1-0.2,0.2-0.3,0.4c-0.1,0.1-0.1,0.3-0.1,0.5c0,0.2,0,0.3,0.1,0.5
		c0.1,0.2,0.1,0.3,0.3,0.4c0.1,0.1,0.2,0.1,0.3,0.2c0.2,0.1,0.4,0.2,0.6,0.2c0.1,0,0.2,0,0.3,0c0.2-0.1,0.4-0.2,0.6-0.3
		c0.2-0.2,0.4-0.5,0.5-0.7c0-0.1,0.1-0.2,0.1-0.3c0.1-0.2,0.2-0.4,0.2-0.6c0.1-0.2,0.1-0.3,0-0.5c0-0.2-0.1-0.3-0.1-0.5
		c-0.1-0.1-0.2-0.3-0.3-0.4c-0.1-0.1-0.3-0.2-0.4-0.2c-0.1,0-0.2,0-0.3,0c-0.2,0-0.4,0.1-0.6,0.2c-0.1,0.1-0.2,0.1-0.3,0.2
		C329.8,824.9,329.7,825.1,329.6,825.3L329.6,825.3z"/>
	<path class="st13" d="M321.7,830.1c-0.5,0.5-1,1-1.5,1.5c-0.1,0.1-0.2,0.2-0.3,0.4c-0.1,0.1-0.1,0.3-0.1,0.5c0,0.2,0,0.3,0.1,0.5
		c0.1,0.2,0.1,0.3,0.3,0.4c0.2,0.2,0.6,0.4,0.9,0.4c0.3,0,0.6-0.1,0.9-0.4c0.5-0.5,1-1,1.5-1.5c0.1-0.1,0.2-0.2,0.3-0.4
		c0.1-0.1,0.1-0.3,0.1-0.5c0-0.2,0-0.3-0.1-0.5c-0.1-0.2-0.1-0.3-0.3-0.4c-0.2-0.2-0.6-0.4-0.9-0.4
		C322.2,829.7,321.9,829.8,321.7,830.1L321.7,830.1z"/>
	<path class="st6" d="M263.5,805.4c-0.6,0.9-1.3,1.8-2.1,2.6c-0.3,0.3-0.6,0.6-1,0.9c-1.4,1.1-3,1.4-4.7,1.4
		c-6.2,0-13.5-4.1-16.4-9.7c-1.4-2.7-0.9-6.1,0.2-8.9c0.6-1.4,1.3-2.6,2.2-3.7c-0.6,1.1-1.1,2.3-1.3,3.5c-0.9,5.4,2.6,10.1,7,12.9
		c4.2,2.7,10.1,5.1,14.8,2.1C262.7,806.1,263.2,805.8,263.5,805.4z"/>
	<path class="st7" d="M265.9,800.3c-0.1,2-1,3.8-2.4,5.1c-0.4,0.4-0.8,0.7-1.3,1c-4.7,3-10.6,0.6-14.8-2.1c-4.4-2.8-7.8-7.4-7-12.9
		c0.2-1.2,0.6-2.4,1.3-3.5c0.5-0.9,1.2-1.7,2.1-2.3c1.7-1.3,3.7-1.4,5.8-1.2h0c5.6,0.2,10.6,3.6,13.7,8.2
		C264.8,794.8,266.1,797.6,265.9,800.3z"/>
	<path class="st14" d="M297.9,808.2c-0.4,0.6-0.8,1.1-1.2,1.4c-1.7-1.9-4.1-3.3-6.6-3.7c-0.2,0-0.5-0.1-0.7-0.1c0,0,0-0.1,0-0.1
		c0-0.9,0.4-1.9,0.4-2.8c0-0.4,0.6-3.3,1.1-3.3c0.6,0,1.5,2,1.8,2.5c0.3,0.6,1.1,1.8,1.7,1.9c0.8,0.2,5.4-1.1,6.2-1.2
		C301.4,802.7,299.5,806,297.9,808.2z"/>
	<path class="st18" d="M297.9,808.2c-0.4,0.6-0.8,1.1-1.2,1.4c-1.7-1.9-4.1-3.3-6.6-3.7c-0.2,0-0.5-0.1-0.7-0.1c0,0,0-0.1,0-0.1
		C290.4,805.1,293.3,804.5,297.9,808.2z"/>
	<path class="st19" d="M296.7,823.3c-2.1,2.2-5,3.9-8,4.1c-5.7,0.4-10.1-4.1-11.7-8.5c-0.6-1.6-0.8-3.2-0.6-4.6
		c0.3-2.4,1.6-4.7,3.6-6.4c3.3-2.6,6.4-2.5,9.4-2.1c0.2,0,0.5,0.1,0.7,0.1c2.5,0.4,4.8,1.8,6.6,3.7c0.4,0.5,0.8,1,1.2,1.5
		c0.8,1.2,1.4,2.5,1.6,3.9C300,818,298.8,821.1,296.7,823.3z"/>
	<path class="st20" d="M296.7,823.3c-2.1,2.2-5,3.8-8,4c-5.7,0.4-10.1-4.1-11.7-8.5c0.1,0,0.2-0.1,0.3-0.1c0.6-0.1,1.2,0.2,1.8,0.5
		c1.1,0.6,3,1,4.3,1.1c3.9,0.5,5.6-0.2,7.6-1.2c1.6-0.9,3.7-3.5,4.5-6c0.3-0.8,0.8-1.4,1.3-2c0.2-0.2,0.8,0.1,1,0
		c0.8,1.2,1.3,2.5,1.6,3.9C300,818,298.8,821.1,296.7,823.3z"/>
	<path class="st21" d="M285.3,823.7c1,0.3,2.1,0.5,3.1,0.7c0.3,0,0.7-0.2,0.9-0.4c0.2-0.2,0.4-0.6,0.4-0.9c0-0.3-0.1-0.7-0.4-0.9
		c-0.1-0.1-0.2-0.1-0.3-0.2c-0.2-0.1-0.4-0.2-0.6-0.2c0,0-0.1,0-0.1,0c0.1,0,0.2,0,0.3,0c-0.9-0.1-1.8-0.3-2.6-0.6
		c-0.3-0.1-0.7,0-1,0.1c-0.3,0.2-0.5,0.4-0.6,0.7C284.3,822.9,284.6,823.5,285.3,823.7L285.3,823.7z"/>
	<path class="st6" d="M248.8,790.7c0.8,1.4,1.6,2.9,2.3,4.4c0.2,0.5,1,0.7,1.5,0.4c0.5-0.3,0.6-0.9,0.4-1.5c-0.7-1.5-1.5-3-2.3-4.4
		c-0.3-0.5-1-0.7-1.5-0.4C248.7,789.6,248.5,790.2,248.8,790.7L248.8,790.7z"/>
	<path class="st6" d="M250.7,795.2c-1.4-0.6-2.9-1-4.4-1.1c-0.6,0-1.1,0.5-1.1,1.1c0,0.6,0.5,1,1.1,1.1c0.3,0,0.5,0,0.8,0.1
		c-0.1,0-0.2,0-0.3,0c0.5,0.1,1,0.2,1.5,0.3c0.3,0.1,0.5,0.2,0.8,0.2c0.1,0,0.2,0.1,0.3,0.1c0,0,0.1,0,0.1,0c0.1,0,0,0-0.1,0
		c0.1,0,0.1,0.1,0.2,0.1c0.3,0.1,0.5,0.2,0.8,0.1c0.2-0.1,0.5-0.3,0.6-0.5C251.3,796.2,251.2,795.4,250.7,795.2L250.7,795.2z"/>
	<path class="st6" d="M259.9,796.1c-1.3-0.4-2.7-0.8-3.9-1.3c-0.2-0.1-0.6,0-0.8,0.1c-0.2,0.1-0.4,0.4-0.5,0.6
		c-0.1,0.3,0,0.6,0.1,0.8c0.2,0.2,0.4,0.4,0.6,0.5c1.3,0.5,2.6,0.9,3.9,1.3c0.5,0.1,1.2-0.2,1.3-0.8
		C260.8,796.8,260.5,796.2,259.9,796.1L259.9,796.1z"/>
	<path class="st6" d="M252.4,797.5c0.9,1.6,2.1,3.1,3.3,4.6c0.4,0.4,1.1,0.4,1.5,0c0.4-0.5,0.4-1.1,0-1.5c-0.3-0.3-0.6-0.7-0.8-1
		c0,0-0.1-0.1-0.1-0.1c-0.1-0.1,0.1,0.1,0,0c-0.1-0.1-0.1-0.2-0.2-0.3c-0.1-0.2-0.3-0.4-0.4-0.5c-0.5-0.7-1-1.5-1.4-2.2
		c-0.3-0.5-1-0.7-1.5-0.4C252.3,796.3,252.1,797,252.4,797.5L252.4,797.5z"/>
	<path class="st4" d="M296.6,875.2c-5.3,0.6-10.7,0.8-16.1,1.2c-1,0.1-1,1.6,0,1.5c5.4-0.4,10.7-0.6,16.1-1.2
		C297.6,876.6,297.6,875.1,296.6,875.2L296.6,875.2z"/>
	<path class="st4" d="M330.9,866c-8.7,3.6-17.6,6.7-26.9,8.2c-1,0.2-0.5,1.6,0.4,1.4c9.3-1.5,18.2-4.6,26.9-8.2
		C332.2,867,331.8,865.6,330.9,866L330.9,866z"/>
	<path class="st4" d="M335.8,868.3c-12.7,6.2-26.3,10.6-40.5,11.6c-1,0.1-1,1.6,0,1.5c14.5-1,28.2-5.5,41.2-11.8
		C337.5,869.2,336.7,867.9,335.8,868.3L335.8,868.3z"/>
	<path class="st4" d="M342.9,848.6c-10.8,7.7-23.5,11-36.5,12.7c-0.9,0.1-1,1.6,0,1.5c13.2-1.8,26.2-5.1,37.2-12.9
		C344.4,849.4,343.7,848.1,342.9,848.6L342.9,848.6z"/>
	<path class="st4" d="M339.6,855.5c-6.3,4.4-13.6,7-21,8.9c-8.6,2.2-17.5,3.4-26.4,4c-1,0.1-1,1.6,0,1.5c9-0.6,18.1-1.8,26.8-4
		c7.5-1.9,15-4.6,21.3-9C341.2,856.3,340.4,855,339.6,855.5L339.6,855.5z"/>
	<path class="st4" d="M332.9,873.9c-13.5,6.9-28.1,10.5-43.2,10.8c-1,0-1,1.5,0,1.5c15.4-0.4,30.2-4.1,43.9-11.1
		C334.6,874.8,333.8,873.5,332.9,873.9L332.9,873.9z"/>
	<path class="st4" d="M324.4,887.4c-5.8,2.9-12.2,4.6-18.5,5.9c-7.5,1.6-15.2,2.5-22.8,2.1c-1-0.1-1,1.4,0,1.5
		c7.8,0.4,15.6-0.6,23.2-2.2c6.4-1.3,13-3.1,18.9-6C326.1,888.2,325.3,886.9,324.4,887.4L324.4,887.4z"/>
	<path class="st4" d="M320.3,893.8c-5.6,2.9-12.2,4.2-18.4,5.2c-7.7,1.3-15.5,2.1-23.3,2.1c-1,0-1,1.5,0,1.5
		c7.9,0,15.9-0.8,23.7-2.2c6.3-1.1,13-2.4,18.7-5.4C321.9,894.6,321.2,893.3,320.3,893.8L320.3,893.8z"/>
	<path class="st4" d="M328.5,881c-4.2,2.5-9.2,3.8-13.9,5c-6.2,1.6-12.6,2.7-18.9,3.4c-3.2,0.3-6.4,0.5-9.6,0.4c-1,0-1,1.5,0,1.5
		c6.1,0.2,12.3-0.6,18.3-1.6c6.1-1,12.1-2.4,18-4.4c2.4-0.8,4.7-1.7,6.9-3C330.1,881.9,329.3,880.6,328.5,881L328.5,881z"/>
	<path class="st4" d="M309.5,902.1c-13.8,5-28.6,5.1-43.2,4.9c-1,0-1,1.5,0,1.5c14.7,0.2,29.6,0,43.6-5
		C310.8,903.2,310.4,901.7,309.5,902.1L309.5,902.1z"/>
	<path class="st13" d="M344.9,813.2c-4.7,1.1-9,1.1-15.9-3.2c-2.8-1.7-3.9-5.4-4.2-7.3c1.8,0.1,3.5,0.7,5.1,1.4
		c1.8,0.8,3.6,1.7,5.5,2.3c2.2,0.7,4.6,1,6.5,2.4C343.4,809.9,344.4,811.4,344.9,813.2C344.9,813.1,344.9,813.1,344.9,813.2z"/>
	<path class="st14" d="M348.5,810.8c-1.2,1.3-3.1,1.7-4.8,1.5c-2.4-0.3-4.8-0.7-7.2-1.3c-2.7-0.7-5.6-1.5-7.8-3.3
		c-1.6-1.5-2.9-3.2-3.6-5.3c-0.6-1.8-0.9-3.8-1.1-5.7c-0.4-3.9,0.9-9.2,5.5-9.9c2.3-0.3,4.1,0.9,5.2,2.7c0.7,1.1,1.1,2.5,1.2,3.8
		c0.1,1.2-0.1,2.3-0.4,3.4c-0.1,0.6-0.3,1.2-0.4,1.7c-0.1,0.3-0.2,0.9-0.3,1.4l0,0.1l-0.1,0.3c0,0,0,0,0,0h0
		c0.2-0.1,0.4-0.2,0.6-0.3c0.4-0.3,0.8-0.7,1.1-1.1c0.5-0.7,0.9-1.6,1.4-2.4c1-1.7,2.5-2.9,4.5-3.2c1.8-0.2,3.5,0.5,4.5,1.9
		c0.4,0.6,0.7,1.2,0.8,1.8c0,0,0,0,0,0.1c0.1,0.9,0,1.9-0.6,2.8c-0.9,1.4-2.5,2.2-4,2.9c-0.4,0.2-0.9,0.4-1.3,0.7
		c-0.3,0.3-0.4,0.3-0.1,0.6c0.4,0.4,1.6,0.1,2.1,0.1c1.6-0.1,3.2,0.3,4.4,1.3c0.2,0.2,0.4,0.4,0.6,0.6
		C349.6,807.6,349.7,809.5,348.5,810.8z"/>
	<path class="st18" d="M335.8,793.3c0.1,1.2-0.1,2.3-0.4,3.4c-0.1,0.6-0.3,1.2-0.4,1.7c-0.1,0.3-0.2,0.9-0.3,1.4l0,0.1l-0.1,0.3
		c0,0-1.2,1.9-2,1.1c-0.9-0.9,3-7.5,2.1-11.8C335.3,790.7,335.8,792,335.8,793.3z"/>
	<path class="st22" d="M264.5,834.8c-0.6,3.2-3.1,5.6-5.9,7.1c-3.1,1.7-6.5,2.3-10,1.6c6.7-0.1,11.5-4.4,14-9.4
		c1.7-3.4,0.8-7.3,0.4-9.1C264.6,828,265.2,831.5,264.5,834.8z"/>
	<path class="st4" d="M311.4,907.6c-0.6,0.6-1.2,1.2-1.9,1.7c-1.9,1.6-4.2,2.6-6.5,3.5c-7.8,3.1-16.3,4.2-24.6,4.7
		c-11.4,0.6-22.9-0.1-34-2.5c-4.3-1-8.7-2.2-12.7-4c-3-1.3-5.3-4.1-7.4-6.6c1.1,1.1,8.8,8.5,30.7,10.1
		C278.7,916.3,298.4,915.4,311.4,907.6C311.4,907.7,311.4,907.6,311.4,907.6z"/>
	<path class="st18" d="M342.2,802.2c1.5-0.8,5.5-2.7,5.2-4.8c0-0.1,0-0.1,0-0.2c0.1,0.9,0,1.9-0.6,2.8c-0.9,1.4-2.5,2.2-4,2.9
		c-0.4,0.2-0.9,0.4-1.3,0.7c-0.3,0.3-2.2,1.2-2.2,0.3S340.7,803,342.2,802.2z"/>
</g>
<g>
	<g>
		<path class="st23" d="M465.5,837.2c3.8,0,7.2,0.8,10.1,2.3c2.9,1.6,5.3,3.7,7.2,6.4s3.4,5.8,4.4,9.4c1,3.5,1.5,7.3,1.5,11.3
			l0,34.3h-17.6v-35.4c0-3.6-1.3-13-9.6-13c-7.7,0-9.6,8-9.6,13V901h-20.1v-36.1c0-5.2-2.5-12.4-8.7-12.4c-8.6,0-10.4,9.5-10.4,13
			V901H395v-61.6h13.7c2,0,3.6,1.6,3.6,3.6l0,0c1.1-2.1,4.6-4.3,6.6-4.9c2-0.6,4.5-0.9,7.4-0.9c4.1,0,7.7,0.9,10.8,2.7
			c3,1.8,5.5,4.3,7.5,7.4c0.3-0.4,0.9-1.2,1.8-2.3c0.9-1.1,2.3-2.2,4-3.4c1.7-1.2,3.8-2.2,6.3-3.1
			C459.1,837.7,462.1,837.2,465.5,837.2z"/>
		<path class="st23" d="M670.8,894.9c-3.3,4.2-7.8,6.9-13.6,8.3c-1.9,0.4-3.9,0.6-5.8,0.6c-3,0-5.8-0.3-8.4-0.9s-4.8-1.4-6.8-2.3
			c-2-0.9-3.7-1.8-5.1-2.6c-1.4-0.9-2.4-1.6-3.1-2.1l5.8-8.1c1.4-2.1,4.3-2.7,6.5-1.5c1.3,0.7,2.5,1.3,3.6,1.8
			c2.2,0.9,9.3,3.5,12.3-0.2c1.3-1.6,1.8-6.1-4.2-8.8c-1.3-0.6-6.9-3.1-9.6-4.3c-2.4-1.1-4.8-2.2-6.8-4.1c-3.2-3.2-5-7.3-5.3-12.4
			c-0.1-2,0.2-4.3,1-6.9c0.8-2.6,2.2-5.1,4.3-7.5c4.1-4.5,10.1-6.7,18-6.7c3,0,6,0.6,9.1,1.8c3,1.2,5.8,2.9,8.2,5l-6.2,7.9
			c-1.5,2-4.3,2.5-6.4,1.2c0,0,0,0,0,0c-1.1-0.6-3.3-1.3-4.2-1.6c-2.1-0.5-7.2-0.7-7.1,4c0,1.1,0.4,2.1,1.3,2.9
			c0.8,0.8,2,1.5,3.4,2.1c1.4,0.6,3,1.2,4.7,1.8c2.1,0.7,4.2,1.5,6.3,2.5c2.2,0.9,4.2,2.2,6,3.6c1.9,1.5,3.4,3.3,4.5,5.6
			c1.2,2.3,1.8,5.1,1.8,8.5C674.9,887.2,673.5,891.3,670.8,894.9z"/>
		<path class="st23" d="M703.1,901h-17.8v-87h12.9c2.7,0,4.9,2.2,4.9,4.9V901z"/>
		<path class="st23" d="M733.5,901h-17.9v-61.6h12.9c2.7,0,4.9,2.2,4.9,4.9V901z"/>
		<path class="st23" d="M734.7,825.4c0,2.8-1,5.2-3,7.2c-2,2-4.4,3-7.2,3c-2.8,0-5.2-1-7.2-3c-2-2-3-4.4-3-7.2s1-5.2,3-7.2
			c2-2,4.4-3,7.2-3c2.8,0,5.2,1,7.2,3C733.8,820.2,734.7,822.6,734.7,825.4z"/>
		<path class="st23" d="M496.9,877.3c-0.3-10.4,0-37.7,0-37.7h14.2c2.7,0,4.9,2.2,4.9,4.9v31.1c0,5.2,3.5,12.4,9.7,12.4
			c8.6,0,10.4-9.5,10.4-13v-35.4H549c2.7,0,4.9,2.2,4.9,4.9v56.6h-13.7c-2,0-3.6-1.6-3.6-3.6l0,0c-1.1,2.1-4.6,4.3-6.6,4.9
			c-2,0.6-4.5,0.9-7.4,0.9C502.8,903.3,497.2,885.7,496.9,877.3z"/>
		<path class="st23" d="M621.5,868.1c0-0.1,0-0.3,0-0.4c0-4-0.8-9.5-3.2-15.1c-2-4.5-7.7-15.6-24.8-15.6c-8.7,0-16.2,3.3-22.4,9.8
			c-6.2,6.5-9.3,14.4-9.3,23.6c0,8.5,2.8,15.9,8.4,22.3c5.5,6.3,12.3,9.9,20.3,11c0,0,0,0,0,0c0.1,0,0.2,0,0.2,0c0.1,0,0.1,0,0.2,0
			c0.1,0,0.2,0,0.3,0c0.7,0.1,1.4,0.1,2.2,0.1c0.2,0,0.4,0,0.6,0c2.3,0,5.6-0.3,8-0.9c1.7-0.4,4.6-1.4,6.6-2.3
			c2-0.9,3.7-1.8,5.1-2.6c1.4-0.9,2.4-1.6,3.1-2.1l-5.8-8.1c-1.4-2.1-4.2-2.7-6.5-1.5c-1.3,0.7-2.5,1.2-3.6,1.5
			c-1.1,0.3-2.7,0.7-4.1,0.7c-4.9-0.1-8.2-1.4-11.3-3.8c-3.1-2.5-5-5.4-5.7-8.8h33.9C618,876,621.5,872.5,621.5,868.1z M579.4,862.6
			c0.7-2.8,5.1-9.7,12.9-9.7c8.1,0,12,6.1,12,9.7H579.4z"/>
	</g>
	<path class="st2" d="M784,867.3c-1.9-1.5-3.9-2.7-6-3.6c-2.2-0.9-4.3-1.8-6.3-2.5c-1.7-0.6-3.3-1.2-4.7-1.8
		c-1.4-0.6-2.5-1.3-3.4-2.1c-0.8-0.8-1.2-1.7-1.2-2.9c0-1.1,0.5-2.2,1.4-3c0.9-0.9,2-1.4,3.1-1.7c1.3-0.4,2.7-0.4,4,0
		c1.3,0.3,2.5,0.8,3.6,1.4c0.1,0.1,0.3,0.2,0.4,0.2c1.9,1.2,4.4,0.7,5.7-1.1l5.6-7.4c-2.4-2.1-5.2-3.8-8.2-5c-3-1.2-6-1.8-9-1.8
		c-7.8,0-13.7,2.2-17.9,6.7c-2.1,2.4-3.5,4.9-4.3,7.5c-0.8,2.6-1.1,4.9-1,6.9c0.3,5.1,2.1,9.2,5.3,12.4c2,1.9,4.3,3.3,6.8,4.1
		c2.5,0.9,5.1,1.5,7.7,2.1c1.3,0.2,2.5,0.6,3.8,1.2s2.3,1.4,3.2,2.3c0.9,1,1.3,2.2,1.3,3.7c0,1.7-0.5,3-1.4,3.9
		c-0.9,0.9-2.1,1.4-3.4,1.7c-1.3,0.3-2.6,0.4-3.8,0.4c-2.3,0-4.5-0.5-6.6-1.4c-1.2-0.5-2.5-1.2-3.9-2c-2-1.1-4.5-0.6-5.8,1.3
		l-5.3,7.6c0.7,0.5,1.7,1.2,3,2.1c1.4,0.9,3,1.7,5,2.6c2,0.9,4.3,1.6,6.8,2.3c2.5,0.6,5.3,0.9,8.3,0.9c1.9,0,3.9-0.2,5.8-0.6
		c5.7-1.3,10.3-4.1,13.5-8.2c2.7-3.6,4-7.7,4-12.3c0-3.4-0.6-6.2-1.7-8.5C787.3,870.6,785.8,868.8,784,867.3z"/>
	<path class="st2" d="M1006.1,846c-5.8-6.4-13.1-9.7-21.9-9.7c-8.1,0-14.4,2.1-18.9,6.4c0-2.4-2-4.4-4.4-4.4h-11.2v91h11.1
		c2.4,0,4.4-2,4.4-4.4v-29.1c4.4,4.3,10.7,6.4,18.9,6.4c8.8,0,16.1-3.2,21.9-9.7c5.8-6.4,8.6-14.2,8.6-23.3
		C1014.7,860.2,1011.9,852.4,1006.1,846z M994.3,882.5c-3.3,3.5-7.3,5.3-12,5.3c-4.7,0-8.7-1.8-12-5.3c-3.3-3.5-5-7.8-5-12.8
		c0-5,1.7-9.3,5-12.9c3.3-3.6,7.3-5.3,12-5.3c4.7,0,8.7,1.8,12,5.3c3.3,3.6,5,7.9,5,12.9C999.2,874.7,997.6,878.9,994.3,882.5z"/>
	<path class="st2" d="M866.4,838.4c-1.9,0-3.6,1.2-4.2,3.1l-8,25.4l-8.4-18.8c-0.6-1.5-2.1-2.4-3.7-2.4h-11.3l-9.5,21.2l-8-25.4
		c-0.6-1.8-2.3-3.1-4.2-3.1h-14.5l20,62.5h6.3c1.6,0,3.1-1,3.7-2.4l8.9-20.7l4.1-9.6l4.1,9.6l10,23.1h6.1c1.8,0,3.3-1.1,3.8-2.8
		l19.1-59.7H866.4z"/>
	<g>
		<path class="st2" d="M923.5,894c-1.5,1.2-3.1,2.5-4.9,3.4c-3.2,1.8-7.7,3.4-13.4,3.4c-14.1,0-21.8-7.4-21.8-17.9
			c0-12.5,8.6-22,38.7-21.3c0-7-4.2-9.9-10.6-9.9c-5.3,0-7.8,2.2-9,3.9c-0.8,1.2-2.2,1.9-3.6,1.9h-13.5
			c1.5-11.5,11.3-21.3,27.5-21.3c14.6,0,25.4,10.4,25.4,24.7v34.8c0,2.4-2,4.4-4.4,4.4h-10.4L923.5,894z M921.6,874.5
			c-20-0.8-23.4,3.3-23.4,8.3c0,3.1,3.9,6.1,9,6.1c8.7,0,14.4-4.9,14.4-11.9V874.5z"/>
	</g>
</g>
</svg>
