<?xml version="1.0" encoding="utf-8"?>
<!-- Generator: Adobe Illustrator 26.1.0, SVG Export Plug-In . SVG Version: 6.00 Build 0)  -->
<svg version="1.1" id="Layer_1" xmlns="http://www.w3.org/2000/svg" xmlns:xlink="http://www.w3.org/1999/xlink" x="0px" y="0px"
	 viewBox="0 0 1200 1696.47" style="enable-background:new 0 0 1200 1696.47;" xml:space="preserve">
<style type="text/css">
	.st0{fill:#DDE2F8;}
	.st1{fill:#8090FF;}
	.st2{fill:#5165F7;}
	.st3{fill:#9FAFFF;}
	.st4{fill:#1841D3;}
	.st5{fill:#FFFFFF;}
	.st6{fill:#ED9F00;}
	.st7{fill:#FFE2A9;}
	.st8{fill:#E8C079;}
	.st9{fill:#83C7FF;}
	.st10{fill:#187EB7;}
	.st11{fill:#FF5A5A;}
	.st12{fill:#EF4848;}
	.st13{fill:#D81D1D;}
	.st14{fill:#17CFE2;}
	.st15{fill:#E59E51;}
	.st16{fill:#FFC98F;}
	.st17{fill:#FFDDBB;}
	.st18{fill:#00A5A5;}
	.st19{fill:#CB6DFC;}
	.st20{fill:#B65EEF;}
	.st21{fill:#6A10C1;}
	.st22{fill:#CC823A;}
	.st23{fill:#081E3F;}
</style>
<g>
	<path class="st0" d="M660.65,789.14c0-7.24-27.49-13.11-61.41-13.11c-33.92,0-61.41,5.87-61.41,13.11
		c0,7.24,27.49,13.11,61.41,13.11C633.16,802.25,660.65,796.38,660.65,789.14z"/>
	<path class="st1" d="M684.01,712.25c-0.3,1-0.64,1.98-0.98,2.96c-1.07,2.93-2.26,5.82-3.56,8.68c0,0,0,0,0,0.01
		c-0.3,0.63-0.59,1.26-0.88,1.88c-2.01,4.26-4.21,8.42-6.43,12.54c-0.5,0.91-1,1.83-1.5,2.74c-3.71,6.73-7.63,13.35-11.78,19.83
		c-2.78,4.35-5.64,8.68-8.72,12.85c-1.13,1.54-2.29,3.04-3.49,4.52c-0.02,0.01-0.03,0.03-0.03,0.03c-0.18,0.24-0.38,0.47-0.57,0.71
		c-1.51,1.84-3.08,3.67-4.9,5.21c-1.9,1.62-4.23,2.59-6.53,3.51c-7.8,3.12-16.3,4.21-24.63,4.65c-11.4,0.6-22.88-0.07-34.04-2.54
		c-4.34-0.95-8.65-2.17-12.73-3.97c-0.37-0.17-0.74-0.36-1.09-0.56c-0.17-0.11-0.35-0.21-0.52-0.33c-0.35-0.22-0.68-0.46-1.01-0.72
		c-0.15-0.12-0.29-0.24-0.44-0.36c-0.03-0.04-0.07-0.06-0.1-0.09c-0.28-0.24-0.55-0.48-0.81-0.74c-0.66-0.64-1.3-1.32-1.91-2.01
		c-0.52-0.6-1.02-1.19-1.5-1.78c-0.01-0.01-0.05-0.06-0.11-0.13c-0.09-0.11-0.23-0.27-0.38-0.46c-0.1-0.11-0.19-0.23-0.29-0.35
		c-0.1-0.13-0.2-0.25-0.3-0.37c-0.1-0.13-0.19-0.25-0.29-0.37c-0.21-0.26-0.4-0.49-0.5-0.61c-0.05-0.06-0.08-0.09-0.08-0.09
		c-2.72-3.45-5.28-7.03-7.72-10.71c-0.22-0.33-0.44-0.65-0.65-0.98l-0.01-0.02c-2.4-3.65-4.71-7.39-6.95-11.12
		c-2.34-3.88-4.61-7.81-6.8-11.78c-2.54-4.59-4.96-9.24-7.24-13.96c-0.59-1.22-1.17-2.44-1.73-3.67c-1.1-2.39-2.14-4.8-3.09-7.24
		c-0.92-2.35-1.79-4.74-2.32-7.22c0.84,1.86,2.48,3.36,4.04,4.58c1.98,1.56,4.14,2.84,6.33,4.09c7.2,4.12,15.15,6.45,23.15,8.47
		c4.22,1.07,8.45,2.08,12.76,2.72c17.68,2.53,35.54,3.98,53.41,3.45c14.89-0.45,30.37-1.71,44.5-6.75c3.43-1.22,6.79-2.68,9.99-4.41
		c3.15-1.71,6.42-3.65,9.08-6.07C681.83,715.19,683.13,713.78,684.01,712.25z"/>
	<path class="st2" d="M679.47,723.9c-0.29,0.63-0.59,1.26-0.88,1.89c-2.01,4.25-4.21,8.42-6.43,12.53c-0.5,0.91-1,1.83-1.5,2.75
		c-3.71,6.73-7.64,13.35-11.78,19.82c-2.78,4.36-5.65,8.69-8.73,12.85c-1.13,1.54-2.29,3.04-3.49,4.52
		c-0.02,0.02-0.03,0.03-0.03,0.03c-0.19,0.24-0.39,0.47-0.58,0.71c-1.51,1.84-3.08,3.68-4.9,5.22c-1.9,1.62-4.23,2.59-6.53,3.5
		c-7.8,3.12-16.29,4.22-24.63,4.66c-11.4,0.59-22.88-0.08-34.04-2.54c-4.34-0.96-8.65-2.18-12.72-3.98
		c-0.38-0.16-0.74-0.35-1.09-0.56c-0.17-0.1-0.35-0.21-0.53-0.33c-0.34-0.22-0.68-0.46-1.01-0.72c-0.15-0.12-0.29-0.24-0.44-0.36
		c-0.03-0.03-0.07-0.06-0.1-0.09c-0.28-0.24-0.54-0.48-0.81-0.74c-0.66-0.64-1.3-1.32-1.91-2.01c-0.52-0.59-1.02-1.19-1.5-1.77
		c-0.01-0.01-0.05-0.06-0.11-0.13c-0.09-0.11-0.22-0.28-0.38-0.46c-0.09-0.11-0.19-0.22-0.28-0.35c-0.1-0.12-0.21-0.25-0.3-0.37
		c-0.1-0.12-0.2-0.24-0.29-0.36c-0.22-0.27-0.4-0.49-0.5-0.61c-0.05-0.06-0.08-0.09-0.08-0.09
		C611.59,773.45,667.54,742.46,679.47,723.9z"/>
	<path class="st3" d="M684.02,712.23c-0.29,1.01-0.41,2.11-0.99,2.98c-12.05,17.78-42.11,27.14-83.5,30.69
		c-30.12,2.58-56.81,0.86-67.75-3.62c-2.54-4.59-4.96-9.24-7.24-13.96c-0.59-1.22-1.17-2.44-1.73-3.67c-1.1-2.39-2.14-4.8-3.09-7.24
		c-0.92-2.35-1.79-4.74-2.32-7.22c0.84,1.86,2.48,3.36,4.04,4.58c1.98,1.56,4.14,2.84,6.33,4.09c7.2,4.12,15.15,6.45,23.15,8.47
		c4.22,1.07,8.45,2.08,12.76,2.72c17.68,2.53,35.54,3.98,53.41,3.45c14.89-0.45,30.37-1.71,44.5-6.75c3.43-1.22,6.79-2.68,9.99-4.41
		c3.15-1.71,6.42-3.65,9.08-6.07C681.84,715.19,683.14,713.77,684.02,712.23z"/>
	<path class="st4" d="M684.98,709.84c-0.17,0.8-0.51,1.61-0.96,2.39c0,0.01-0.01,0.01-0.01,0.02c-0.88,1.53-2.18,2.94-3.35,4.02
		c-2.66,2.42-5.93,4.36-9.08,6.07c-3.2,1.73-6.56,3.19-9.99,4.41c-14.13,5.04-29.61,6.3-44.5,6.75
		c-17.87,0.53-35.73-0.92-53.41-3.45c-4.31-0.64-8.54-1.65-12.76-2.72c-8-2.02-15.95-4.35-23.15-8.47
		c-2.19-1.25-4.35-2.53-6.33-4.09c-1.56-1.22-3.2-2.72-4.04-4.58c0,0,0-0.01,0-0.02s-0.01-0.01-0.01-0.02
		c-0.14-0.31-0.26-0.64-0.35-0.97c-1.28-4.97,4.8-7.93,8.46-9.61c5.25-2.41,10.87-3.99,16.49-5.28c15.34-3.52,31.23-4.89,46.95-5.18
		c15.99-0.3,32.11,0.57,48.01,2.35c9.82,1.11,19.7,2.59,29.21,5.36c4.98,1.45,10.18,3.23,14.45,6.26c1.83,1.31,4.01,3.14,4.39,5.52
		C685.07,709.01,685.07,709.43,684.98,709.84z"/>
	<path class="st5" d="M652.18,698.48c10.13,2.04,21.62,5.54,25.87,9.47c3.67,3.39-3.97,8.08-10.84,10.75
		c-23.57,9.18-42.51,11.32-67.61,10.77c-16-0.35-39.11-4.4-50.43-6.98c-10.4-2.37-25.82-9.1-26.23-14.64
		c0.42-5.25,23.61-11.92,41.62-13.68C586.38,692.05,613.79,690.73,652.18,698.48z"/>
	<path class="st2" d="M525.26,725.45c6.34,4.14,13.67,6.5,20.74,9.06c0.91,0.33,1.3-1.12,0.4-1.45c-6.95-2.52-14.15-4.83-20.39-8.91
		C525.2,723.62,524.45,724.92,525.26,725.45L525.26,725.45z"/>
	<path class="st2" d="M529.44,734.5c11.82,5.87,25,9.5,38.05,11.27c0.94,0.13,1.35-1.32,0.4-1.45c-12.92-1.75-26-5.3-37.69-11.11
		C529.33,732.78,528.57,734.07,529.44,734.5L529.44,734.5z"/>
	<path class="st2" d="M552.25,736.16c6.16,1.53,12.4,2.68,18.68,3.58c0.94,0.14,1.35-1.31,0.4-1.45c-6.28-0.9-12.53-2.05-18.68-3.58
		C551.71,734.48,551.31,735.93,552.25,736.16L552.25,736.16z"/>
	<path class="st1" d="M601.61,699.9c0.3-0.19,0.6-0.38,0.91-0.57c0.15-0.08,0.26-0.19,0.35-0.32c0.11-0.12,0.19-0.26,0.22-0.43
		c0.05-0.17,0.06-0.33,0.02-0.5c-0.01-0.17-0.06-0.32-0.15-0.46c-0.07-0.08-0.13-0.17-0.2-0.25c-0.16-0.15-0.34-0.26-0.55-0.32
		c-0.11-0.01-0.22-0.03-0.33-0.04c-0.23,0-0.44,0.06-0.63,0.17c-0.3,0.19-0.6,0.38-0.91,0.57c-0.15,0.08-0.26,0.19-0.35,0.32
		c-0.11,0.12-0.19,0.26-0.22,0.43c-0.05,0.17-0.06,0.33-0.02,0.5c0.01,0.17,0.06,0.32,0.15,0.46c0.07,0.08,0.13,0.17,0.2,0.25
		c0.16,0.15,0.34,0.26,0.55,0.32c0.11,0.01,0.22,0.03,0.33,0.04C601.2,700.07,601.41,700.01,601.61,699.9L601.61,699.9z"/>
	<path class="st1" d="M606.89,703.85c0.3-0.19,0.6-0.38,0.91-0.57c0.15-0.08,0.26-0.19,0.35-0.32c0.11-0.12,0.19-0.26,0.22-0.43
		c0.05-0.17,0.06-0.33,0.02-0.5c-0.01-0.17-0.06-0.32-0.15-0.46c-0.07-0.08-0.13-0.17-0.2-0.25c-0.16-0.15-0.34-0.26-0.55-0.32
		c-0.11-0.01-0.22-0.03-0.33-0.04c-0.23,0-0.44,0.06-0.63,0.17c-0.3,0.19-0.6,0.38-0.91,0.57c-0.15,0.08-0.26,0.19-0.35,0.32
		c-0.11,0.12-0.19,0.26-0.22,0.43c-0.05,0.17-0.06,0.33-0.02,0.5c0.01,0.17,0.06,0.32,0.15,0.46c0.07,0.08,0.13,0.17,0.2,0.25
		c0.16,0.15,0.34,0.26,0.55,0.32c0.11,0.01,0.22,0.03,0.33,0.04C606.49,704.02,606.7,703.96,606.89,703.85L606.89,703.85z"/>
	<path class="st1" d="M633.35,712.91c0.3-0.19,0.6-0.38,0.91-0.57c0.15-0.08,0.26-0.19,0.35-0.32c0.11-0.12,0.19-0.26,0.22-0.43
		c0.05-0.17,0.06-0.33,0.02-0.5c-0.01-0.17-0.06-0.32-0.15-0.46c-0.07-0.08-0.13-0.17-0.2-0.25c-0.16-0.15-0.34-0.26-0.55-0.32
		c-0.11-0.01-0.22-0.03-0.33-0.04c-0.23,0-0.44,0.06-0.63,0.17c-0.3,0.19-0.6,0.38-0.91,0.57c-0.15,0.08-0.26,0.19-0.35,0.32
		c-0.11,0.12-0.19,0.26-0.22,0.43c-0.05,0.17-0.06,0.33-0.02,0.5c0.01,0.17,0.06,0.32,0.15,0.46c0.07,0.08,0.13,0.17,0.2,0.25
		c0.16,0.15,0.34,0.26,0.55,0.32c0.11,0.01,0.22,0.03,0.33,0.04C632.95,713.08,633.16,713.02,633.35,712.91L633.35,712.91z"/>
	<path class="st1" d="M636.29,716.72c0.3-0.19,0.6-0.38,0.91-0.57c0.15-0.08,0.26-0.19,0.35-0.32c0.11-0.12,0.19-0.26,0.22-0.43
		c0.05-0.17,0.06-0.33,0.02-0.5c-0.01-0.17-0.06-0.32-0.15-0.46c-0.07-0.08-0.13-0.17-0.2-0.25c-0.16-0.15-0.34-0.26-0.55-0.32
		c-0.11-0.01-0.22-0.03-0.33-0.04c-0.23,0-0.44,0.06-0.63,0.17c-0.3,0.19-0.6,0.38-0.91,0.57c-0.15,0.08-0.26,0.19-0.35,0.32
		c-0.11,0.12-0.19,0.26-0.22,0.43c-0.05,0.17-0.06,0.33-0.02,0.5c0.01,0.17,0.06,0.32,0.15,0.46c0.07,0.08,0.13,0.17,0.2,0.25
		c0.16,0.15,0.34,0.26,0.55,0.32c0.11,0.01,0.22,0.03,0.33,0.04C635.88,716.89,636.09,716.84,636.29,716.72L636.29,716.72z"/>
	<path class="st6" d="M568.88,655.24c-0.94-1.69-1.87-3.38-2.81-5.07c-0.32-0.57-1.15-0.81-1.71-0.45c-0.58,0.37-0.79,1.1-0.45,1.71
		c0.94,1.69,1.87,3.38,2.81,5.07c0.32,0.57,1.15,0.81,1.71,0.45C569.01,656.57,569.22,655.85,568.88,655.24L568.88,655.24z"/>
	<path class="st6" d="M575.5,651.7c-0.12-1.62-0.23-3.23-0.35-4.85c-0.05-0.65-0.54-1.28-1.25-1.25c-0.64,0.03-1.3,0.55-1.25,1.25
		c0.11,1.62,0.23,3.23,0.35,4.85c0.05,0.65,0.54,1.28,1.25,1.25C574.89,652.92,575.55,652.39,575.5,651.7L575.5,651.7z"/>
	<path class="st6" d="M564.37,659.89c-2.08-0.88-4.22-1.56-6.44-1.97c-0.64-0.12-1.38,0.18-1.54,0.87
		c-0.14,0.61,0.19,1.41,0.87,1.54c1.04,0.19,2.06,0.43,3.07,0.73c0.5,0.15,0.99,0.31,1.47,0.48c0.25,0.09,0.5,0.18,0.75,0.28
		c0.11,0.04,0.21,0.08,0.32,0.13c0.04,0.02,0.47,0.2,0.23,0.09c0.32,0.14,0.61,0.22,0.96,0.13c0.29-0.08,0.6-0.3,0.75-0.57
		C565.1,661.06,565.02,660.16,564.37,659.89L564.37,659.89z"/>
	<path class="st7" d="M612.66,714.72c-0.4,1.22-1.12,2.31-2.13,3.1c-2.74,2.17-6.57,2.01-9.87,1.82c-0.82-0.05-1.84-0.08-2.66-0.42
		c-0.29-0.12-0.56-0.27-0.79-0.48c-0.87-0.8-0.65-1.95-0.07-2.85c0.09-0.13,0.17-0.21,0.27-0.29c0.54-0.57,1.22-0.88,1.9-1.32
		c0.59-0.37,1.03-0.9,1.5-1.4c1.12-1.18,2.35-2.36,3.83-3.08c0.76-0.37,1.54-0.62,2.38-0.69c0.82-0.07,1.67,0.12,2.46,0.25
		c1.16,0.19,2.44,0.5,3.1,1.56c0.07,0.11,0.13,0.22,0.18,0.34C613.23,712.32,613,713.68,612.66,714.72z"/>
	<path class="st8" d="M612.66,714.72c-0.4,1.22-1.12,2.31-2.13,3.1c-2.74,2.17-6.57,2.01-9.87,1.82c-0.82-0.05-1.84-0.08-2.66-0.42
		c7.29-1.91,8.99-7.01,14.78-7.95C613.23,712.32,613,713.68,612.66,714.72z"/>
	<path class="st7" d="M616.54,718.12c0.4,1.22,1.12,2.31,2.13,3.1c2.74,2.17,6.57,2.01,9.87,1.82c0.82-0.05,1.84-0.08,2.66-0.42
		c0.29-0.12,0.56-0.27,0.79-0.48c0.87-0.8,0.65-1.95,0.07-2.85c-0.09-0.13-0.17-0.21-0.27-0.29c-0.54-0.57-1.22-0.88-1.9-1.32
		c-0.59-0.37-1.03-0.9-1.5-1.4c-1.12-1.18-2.35-2.36-3.83-3.08c-0.76-0.37-1.54-0.62-2.38-0.69c-0.82-0.07-1.67,0.12-2.46,0.25
		c-1.16,0.19-2.44,0.5-3.1,1.56c-0.07,0.11-0.13,0.22-0.18,0.34C615.97,715.72,616.2,717.08,616.54,718.12z"/>
	<path class="st8" d="M616.54,718.12c0.4,1.22,1.12,2.31,2.13,3.1c2.74,2.17,6.57,2.01,9.87,1.82c0.82-0.05,1.84-0.08,2.66-0.42
		c-7.29-1.91-8.99-7.01-14.78-7.95C615.97,715.72,616.2,717.08,616.54,718.12z"/>
	<path class="st9" d="M620.96,657.07c-0.09-1.25-0.52-2.48-0.98-3.64c-0.68-1.7-1.49-3.35-2.34-4.98c-1.06-2.03-2.19-4.03-3.39-5.99
		c-0.5-0.81-1.66-0.81-2.16,0c-2.16,3.5-4.2,7.15-5.73,10.97c-0.98,2.45-1.42,4.82-0.24,7.32c1.43,3.03,4.78,4.8,8.08,4.36
		c3.89-0.52,6.7-3.86,6.79-7.74C620.99,657.27,620.98,657.17,620.96,657.07z"/>
	<path class="st10" d="M615.87,657.74c0,0.18-0.01,0.35-0.04,0.53c0.01-0.11,0.03-0.22,0.04-0.33c-0.05,0.32-0.13,0.63-0.25,0.94
		c0.04-0.1,0.08-0.2,0.13-0.3c-0.13,0.31-0.3,0.6-0.5,0.86c0.07-0.08,0.13-0.17,0.2-0.25c-0.2,0.26-0.44,0.5-0.7,0.7
		c0.08-0.07,0.17-0.13,0.25-0.2c-0.27,0.2-0.55,0.37-0.86,0.5c0.1-0.04,0.2-0.08,0.3-0.13c-0.3,0.12-0.61,0.21-0.94,0.25
		c0.11-0.01,0.22-0.03,0.33-0.04c-0.17,0.02-0.35,0.03-0.53,0.04c-0.65,0-1.28,0.57-1.25,1.25c0.03,0.67,0.55,1.25,1.25,1.25
		c1.33-0.01,2.64-0.54,3.58-1.48c0.95-0.95,1.47-2.25,1.48-3.58c0-0.65-0.58-1.28-1.25-1.25
		C616.44,656.52,615.88,657.04,615.87,657.74L615.87,657.74z"/>
	<path class="st11" d="M676.69,692.76c-0.63,3.32-1.91,6.79-4.12,9.35c-7.44,8.66-14.9,13.34-25.58,14.98
		c-0.39,0.09-0.73,0.13-1.04,0.13c-0.17,0-0.33-0.01-0.48-0.04c-0.01,0-0.01,0-0.01,0c-0.15-0.02-0.29-0.05-0.41-0.09
		c-0.25-0.08-0.46-0.19-0.62-0.3c-0.35-0.25-0.5-0.5-0.5-0.5c-2.58-7.34-3.26-15.35-1.94-23.02c0.65-3.83,1.84-7.66,4.21-10.73
		c1.76-2.27,4.26-4.07,7.02-4.78c0.96-0.25,1.96-0.36,2.96-0.32c0.09,0,0.18,0.01,0.27,0.02c1.78,0.14,3.45,0.74,5.11,1.45
		c1.82,0.79,3.63,1.72,5.52,2.34c2.21,0.73,4.63,1.05,6.53,2.41c1.42,1.02,2.36,2.53,2.87,4.21c-0.01,0.02,0,0.03,0.01,0.04
		c0.06,0.23,0.12,0.46,0.17,0.7c0.05,0.23,0.09,0.47,0.12,0.71c0.03,0.18,0.05,0.36,0.06,0.54
		C676.93,690.83,676.88,691.81,676.69,692.76z"/>
	<path class="st11" d="M561.55,702.02c0.84,1.25,1.15,3.43,0.33,4.71c-0.83,1.27-2.75,2.66-4.46,2.12c-0.11,1.56-1.18,5.2-4.44,5.73
		c-1.55,0.25-3.14-0.3-4.33-1.31c-0.01,0-0.02-0.01-0.03-0.02c-1.09,1.35-3.43,1.34-5.45,0.4c-1.13-0.54-3.67-3.02-3.17-5.54
		c-1.26,1.34-4.29,1.08-5.94-0.14c-1.35-0.99-1.6-3.34-1.26-4.67c0.39-1.57,1.23-2.68,2.36-3.45l-0.33-0.07c0,0-0.57-0.9-0.55-2.2
		c0.01-0.32,0.04-0.66,0.14-1.02c1.9-0.16,3.78-0.58,5.51-1.34c4.02-1.75,6.56-5.12,8.23-8.97c0.45-1.02,0.83-2.07,1.17-3.14
		c0.18-0.59,0.33-1.21,0.44-1.84c0.22-0.11,0.45-0.2,0.68-0.27c1.21-0.36,2.58-0.29,3.69-0.07c2.1,0.41,3.34,2.92,2.94,5.03
		c2.03-0.94,5.05-0.24,6.17,1.7c1.13,1.94,0.54,4.69-1.29,5.99c0.86-0.18,3.45,0.69,4.04,2.31
		C567.21,699.32,564.29,702.91,561.55,702.02z"/>
	<path class="st12" d="M561.55,702.02c0.85,1.26,1.15,3.43,0.33,4.71c-0.83,1.27-2.75,2.67-4.46,2.12c-0.11,1.56-1.19,5.2-4.45,5.73
		c-1.54,0.25-3.13-0.31-4.32-1.31c0.57-0.78,1.34-1.44,2.12-2.01c0.37-0.27,0.76-0.56,0.94-0.97c0.28-0.68-0.08-1.44-0.09-2.18
		c-0.03-1.46,1.31-2.54,2.53-3.34c1.22-0.8,2.59-1.76,2.75-3.22c0.13-1.31-0.81-2.46-1.61-3.52c-0.8-1.05-1.55-2.43-1.01-3.64
		c0.37-0.83,1.25-1.33,1.6-2.16c0.41-0.95-0.03-2.11-0.78-2.81c-0.76-0.71-1.78-1.06-2.78-1.32c-1.01-0.26-2.04-0.46-2.95-0.95
		c-0.45-0.24-0.85-0.54-1.21-0.9c0.45-1.02,0.83-2.07,1.17-3.14c0.18-0.59,0.33-1.21,0.44-1.84v-0.01c1.35-0.65,3.04-0.59,4.37-0.33
		c2.09,0.41,3.34,2.91,2.94,5.03c2.04-0.94,5.05-0.24,6.17,1.7c1.13,1.94,0.54,4.69-1.29,5.99c0.86-0.18,3.45,0.69,4.04,2.31
		C567.21,699.33,564.28,702.91,561.55,702.02z"/>
	<path class="st13" d="M553.25,698.78c-0.51-1.05-1.35-2.02-2.38-2.6c-1.22-0.69-2.62-0.78-3.96-0.42
		c-0.13,0.03-0.24,0.09-0.34,0.15c-2.23,1-3.76,3.35-3.83,5.78c-0.06,2.39,1.33,4.83,3.46,5.94c2.39,1.25,5.63,0.81,7.17-1.57
		c0.67-1.04,0.85-2.46,0.79-3.68C554.1,701.13,553.8,699.9,553.25,698.78z M551.47,704.23c-0.19,0.64-0.68,1.1-1.3,1.37
		c-0.79,0.34-1.66,0.31-2.45-0.01c-1.41-0.58-2.37-2.06-2.46-3.46c-0.05-0.89,0.16-1.68,0.65-2.45c0.43-0.68,1.02-1.16,1.76-1.52
		c0.68-0.16,1.35-0.13,1.83,0.12c0.61,0.32,0.98,0.71,1.32,1.26C551.63,700.86,551.93,702.72,551.47,704.23z"/>
	<path class="st13" d="M551.27,694.14c0.05-0.09,0.1-0.18,0.16-0.27c-0.19,0.29,0.03-0.01,0.1-0.07c0.05-0.04,0.09-0.08,0.14-0.12
		c-0.13,0.1-0.13,0.1-0.01,0.02c0.12-0.07,0.24-0.15,0.36-0.21c0.07-0.03,0.13-0.07,0.2-0.1c-0.12,0.05-0.12,0.05,0.02,0
		c0.15-0.05,0.31-0.1,0.46-0.13c0.05-0.01,0.5-0.08,0.3-0.06c0.13-0.01,0.27-0.02,0.4-0.02c0.68-0.01,1.33,0.14,1.91,0.42
		c0.29,0.14,0.55,0.3,0.82,0.47c0.12,0.09,0.12,0.09,0.02,0.01c0.06,0.05,0.12,0.09,0.17,0.14c0.1,0.09,0.19,0.17,0.28,0.27
		c0.09,0.09,0.18,0.19,0.26,0.29c-0.17-0.2,0.11,0.16,0.13,0.2c0.08,0.13,0.16,0.26,0.23,0.4c0.02,0.04,0.2,0.45,0.12,0.25
		c0.1,0.27,0.19,0.55,0.23,0.84c-0.05-0.31,0,0.15,0,0.21c0,0.13,0,0.26-0.01,0.39c0,0.06-0.06,0.45-0.01,0.16
		c-0.03,0.15-0.05,0.29-0.09,0.43c-0.04,0.14-0.09,0.28-0.13,0.42c-0.05,0.13-0.05,0.13,0,0c-0.03,0.06-0.06,0.13-0.09,0.19
		c-0.06,0.12-0.14,0.24-0.21,0.35c-0.08,0.11-0.08,0.11,0.01-0.01c-0.04,0.05-0.09,0.1-0.13,0.14c-0.05,0.05-0.09,0.09-0.14,0.13
		c0.13-0.1,0.14-0.1,0.03-0.02c-0.11,0.06-0.21,0.12-0.33,0.17c-0.62,0.27-0.76,1.18-0.45,1.71c0.37,0.64,1.09,0.72,1.71,0.45
		c1.13-0.49,1.84-1.72,2.14-2.87c0.34-1.31,0.21-2.6-0.32-3.83c-1.15-2.66-4.23-4.13-7.03-3.73c-1.32,0.19-2.79,0.89-3.43,2.13
		c-0.31,0.6-0.16,1.36,0.45,1.71C550.12,694.92,550.97,694.75,551.27,694.14L551.27,694.14z"/>
	<path class="st13" d="M550.45,681c-0.12,1.26-0.04,6.28-3.42,11.53c-3.45,5.38-10.23,4.8-12.75,5.05c0.01-0.32,0.04-0.66,0.14-1.02
		c1.9-0.16,3.78-0.58,5.51-1.34c5.08-2.22,7.81-7.02,9.4-12.11c0.18-0.59,0.33-1.21,0.44-1.84
		C549.99,681.16,550.22,681.07,550.45,681z"/>
	<path class="st14" d="M549.77,681.26v0.01c-0.11,0.63-0.26,1.25-0.44,1.84c-0.34,1.07-0.72,2.12-1.17,3.14
		c-1.67,3.85-4.21,7.22-8.23,8.97c-1.73,0.76-3.61,1.18-5.51,1.34c-1,0.09-2.01,0.11-3,0.07c-2.98-0.11-5.76-1.25-7.44-3.81
		c-0.86-1.29,0.94-2.32,1.96-1.51c1.16,0.92,3.38-2.56,4.1-3.11c1.05-0.82,2.37-1.17,3.67-1.06c-0.33-1.24-1.49-2.04-2.51-2.97
		c-1.82-1.63-2.79-3.63-2.72-6.1c0.03-0.73,0.8-1.53,1.59-1.21c2.47,1.01,5.24,0.51,7.71,1.48c1.13,0.45,2.09,1.1,2.79,1.96
		c0.71-0.89,1.56-1.63,2.57-2.36c1.57-1.14,3.13-2.08,3.09-4.21c-0.02-1.31,1.66-1.59,2.33-0.63
		C550.2,675.46,550.31,678.48,549.77,681.26z"/>
	<path class="st15" d="M596.14,709.67c-0.6,3.24-3.05,5.56-5.86,7.06c-3.09,1.66-6.53,2.25-9.96,1.56
		c-0.21-0.04-0.43-0.09-0.64-0.14c-1.9-0.47-3.61-1.4-5.37-2.2c-1.63-0.72-3.3-1.37-5.02-1.85c0.09,0.02,0.18,0.02,0.27,0.01
		c2.42,0.2,4.76,0.99,7.17,1.25c2.82,0.3,5.6,0.11,8.3-0.78c4.34-1.42,8.8-4.19,10.04-8.88c0.57-2.16,0.43-4.58-0.71-6.53
		c-0.02-0.04-0.04-0.07-0.06-0.11c0.1,0.09,0.19,0.2,0.27,0.35c0.07,0.13,0.13,0.27,0.19,0.4
		C596.17,702.85,596.75,706.36,596.14,709.67z"/>
	<path class="st16" d="M595.07,705.7c-1.24,4.69-5.7,7.46-10.04,8.88c-2.7,0.89-5.48,1.08-8.3,0.78c-2.41-0.26-4.75-1.05-7.17-1.25
		c-0.09,0.01-0.18,0.01-0.27-0.01c-0.08-0.01-0.15-0.03-0.22-0.06c-0.1-0.05-0.19-0.11-0.28-0.18c-0.02-0.01-0.04-0.03-0.06-0.04
		c-0.02-0.02-0.05-0.05-0.07-0.08c-0.02-0.02-0.05-0.05-0.07-0.07c-0.03-0.05-0.06-0.09-0.09-0.14c-0.1-0.17-0.15-0.36-0.15-0.56
		c0-0.03,0-0.07,0.01-0.11c-0.01-0.03,0-0.06,0.01-0.1c0-0.02,0.01-0.04,0.01-0.07c0.01-0.01,0.01-0.03,0.01-0.04
		c0.06-0.23,0.19-0.43,0.38-0.56c0.98-1.13,1.76-2.44,1.89-3.95c0.12-1.45,0.01-2.87,0.28-4.3c0.49-2.55,1.83-4.98,3.72-6.75
		c3.82-3.57,9.25-4.15,13.97-2.19c2.16,0.89,4.4,2.1,5.66,4.15l0.01,0.01c0.02,0.04,0.04,0.07,0.06,0.11
		C595.5,701.12,595.64,703.54,595.07,705.7z"/>
	<path class="st17" d="M585.03,707.63c-2.5,2.56-6.26,1.94-9.47,2.34c-0.33,0.04-0.63-0.11-0.84-0.34
		c-0.04-0.03-0.08-0.07-0.11-0.11s-0.06-0.07-0.08-0.1c-0.14-0.22-0.22-0.46-0.22-0.7c0-0.21,0.06-0.4,0.15-0.56
		c0.01-0.02,0.01-0.05,0.02-0.07c0.67-1.47,1.35-2.94,2.03-4.41c0.58-1.27,1.12-2.6,2.23-3.5c1.9-1.56,4.5-1.64,6.45-2.92
		c0.59-0.39,1.21-0.15,1.58,0.32c0.16,0.21,0.28,0.48,0.3,0.76C587.37,701.55,587.45,705.14,585.03,707.63z"/>
	<path class="st15" d="M585.03,707.63c-2.5,2.56-6.26,1.94-9.47,2.34c-0.33,0.04-0.63-0.11-0.84-0.34c0.39-0.71,1.69-1.76,1.69-1.76
		l10.36-10.29c0.16,0.21,0.28,0.48,0.3,0.76C587.37,701.55,587.45,705.14,585.03,707.63z"/>
	<path class="st12" d="M676.69,692.76c-0.63,3.32-1.91,6.79-4.12,9.35c-7.44,8.66-14.9,13.34-25.58,14.98
		c-0.39,0.09-0.73,0.13-1.04,0.13c-0.17,0-0.33-0.01-0.48-0.04c-0.01,0-0.01,0-0.01,0c-0.15-0.02-0.29-0.05-0.41-0.09
		c-0.25-0.08-0.46-0.19-0.62-0.3c3.82-2.33,23.32-14.84,19.77-26.31c-0.89-2.87-4.01-3.85-6.55-5.83c-3.71-2.89-6.83-6.05-4.75-6.75
		c0.1-0.04,0.21-0.08,0.32-0.14c0.96-0.25,1.96-0.36,2.96-0.32c0.09,0,0.18,0.01,0.27,0.02c1.78,0.14,3.45,0.74,5.11,1.45
		c1.82,0.79,3.63,1.72,5.52,2.34c2.21,0.73,4.63,1.05,6.53,2.41c1.42,1.02,2.36,2.53,2.87,4.21c-0.01,0.02,0,0.03,0.01,0.04
		c0,0.03,0,0.05,0.01,0.08c0.06,0.2,0.11,0.41,0.16,0.62c0.05,0.23,0.09,0.47,0.12,0.71c0.03,0.18,0.05,0.36,0.06,0.54
		C676.93,690.83,676.88,691.81,676.69,692.76z"/>
	<path class="st13" d="M654.04,687.76c0.05-0.27,0.1-0.54,0.15-0.82c0.05-0.17,0.06-0.33,0.02-0.5c-0.01-0.17-0.06-0.32-0.15-0.46
		c-0.08-0.15-0.19-0.26-0.32-0.35c-0.12-0.11-0.26-0.19-0.43-0.22c-0.11-0.01-0.22-0.03-0.33-0.04c-0.23,0-0.44,0.06-0.63,0.17
		c-0.08,0.07-0.17,0.13-0.25,0.2c-0.15,0.16-0.26,0.34-0.32,0.55c-0.05,0.27-0.1,0.54-0.15,0.82c-0.05,0.17-0.06,0.33-0.02,0.5
		c0.01,0.17,0.06,0.32,0.15,0.46c0.08,0.15,0.19,0.26,0.32,0.35c0.12,0.11,0.26,0.19,0.43,0.22c0.11,0.01,0.22,0.03,0.33,0.04
		c0.23,0,0.44-0.06,0.63-0.17c0.08-0.07,0.17-0.13,0.25-0.2C653.87,688.16,653.98,687.97,654.04,687.76L654.04,687.76z"/>
	<path class="st13" d="M664.16,692.59c0.37-0.49,0.75-0.99,1.12-1.48c0.09-0.14,0.14-0.3,0.15-0.46c0.04-0.17,0.03-0.33-0.02-0.5
		c-0.04-0.16-0.11-0.3-0.22-0.43c-0.09-0.14-0.21-0.24-0.35-0.32c-0.29-0.15-0.64-0.23-0.96-0.13c-0.1,0.04-0.2,0.08-0.3,0.13
		c-0.19,0.11-0.34,0.26-0.45,0.45c-0.37,0.49-0.75,0.99-1.12,1.48c-0.09,0.14-0.14,0.3-0.15,0.46c-0.04,0.17-0.03,0.33,0.02,0.5
		c0.04,0.16,0.11,0.3,0.22,0.43c0.09,0.14,0.21,0.24,0.35,0.32c0.29,0.15,0.64,0.23,0.96,0.13c0.1-0.04,0.2-0.08,0.3-0.13
		C663.9,692.93,664.05,692.78,664.16,692.59L664.16,692.59z"/>
	<path class="st13" d="M656.08,694.83c-0.15,0.77-0.29,1.54-0.44,2.32c-0.06,0.34-0.05,0.66,0.13,0.96
		c0.15,0.26,0.45,0.51,0.75,0.57c0.32,0.07,0.68,0.06,0.96-0.13c0.26-0.17,0.51-0.43,0.57-0.75c0.15-0.77,0.29-1.54,0.44-2.32
		c0.06-0.34,0.05-0.66-0.13-0.96c-0.15-0.26-0.45-0.51-0.75-0.57c-0.32-0.07-0.68-0.06-0.96,0.13
		C656.39,694.25,656.14,694.51,656.08,694.83L656.08,694.83z"/>
	<path class="st13" d="M647.87,698.8c-0.51,0.88-0.93,1.81-1.25,2.78c-0.1,0.3-0.03,0.7,0.13,0.96c0.15,0.26,0.45,0.51,0.75,0.57
		c0.32,0.07,0.68,0.06,0.96-0.13c0.28-0.18,0.47-0.43,0.57-0.75c0.11-0.32,0.22-0.63,0.35-0.94c-0.04,0.1-0.08,0.2-0.13,0.3
		c0.22-0.53,0.48-1.04,0.77-1.54c0.16-0.28,0.21-0.65,0.13-0.96c-0.08-0.29-0.3-0.6-0.57-0.75c-0.29-0.15-0.64-0.23-0.96-0.13
		C648.31,698.32,648.04,698.51,647.87,698.8L647.87,698.8z"/>
	<path class="st13" d="M661.24,700.14c-0.03,0.09-0.06,0.17-0.09,0.25c0.04-0.1,0.08-0.2,0.13-0.3c-0.1,0.23-0.23,0.45-0.38,0.65
		c0.07-0.08,0.13-0.17,0.2-0.25c-0.02,0.02-0.03,0.04-0.05,0.07c-0.12,0.11-0.21,0.25-0.26,0.4c-0.08,0.15-0.11,0.31-0.11,0.48
		c-0.01,0.17,0.03,0.33,0.11,0.48c0.05,0.15,0.14,0.29,0.26,0.4c0.08,0.07,0.17,0.13,0.25,0.2c0.19,0.11,0.41,0.17,0.63,0.17
		c0.11-0.01,0.22-0.03,0.33-0.04c0.21-0.06,0.4-0.17,0.55-0.32c0.18-0.23,0.37-0.46,0.51-0.71c0.04-0.08,0.08-0.17,0.12-0.25
		c0.08-0.18,0.16-0.37,0.22-0.56c0.05-0.17,0.06-0.33,0.02-0.5c-0.01-0.17-0.06-0.32-0.15-0.46c-0.08-0.15-0.19-0.26-0.32-0.35
		c-0.12-0.11-0.26-0.19-0.43-0.22c-0.11-0.01-0.22-0.03-0.33-0.04c-0.23,0-0.44,0.06-0.63,0.17c-0.08,0.07-0.17,0.13-0.25,0.2
		C661.41,699.75,661.3,699.93,661.24,700.14L661.24,700.14z"/>
	<path class="st13" d="M653.27,704.88c-0.49,0.49-0.98,0.97-1.48,1.46c-0.12,0.11-0.21,0.25-0.26,0.4
		c-0.08,0.15-0.11,0.31-0.11,0.48c-0.01,0.17,0.03,0.33,0.11,0.48c0.05,0.15,0.14,0.29,0.26,0.4c0.24,0.22,0.55,0.38,0.88,0.37
		c0.33-0.01,0.64-0.13,0.88-0.37c0.49-0.49,0.98-0.97,1.48-1.46c0.12-0.11,0.21-0.25,0.26-0.4c0.08-0.15,0.11-0.31,0.11-0.48
		c0.01-0.17-0.03-0.33-0.11-0.48c-0.05-0.15-0.14-0.29-0.26-0.4c-0.24-0.22-0.55-0.38-0.88-0.37
		C653.82,704.53,653.51,704.64,653.27,704.88L653.27,704.88z"/>
	<path class="st6" d="M595.15,680.22c-0.64,0.92-1.33,1.82-2.13,2.59c-0.31,0.31-0.63,0.59-0.97,0.86
		c-1.38,1.06-2.97,1.43-4.69,1.42c-6.25-0.05-13.51-4.1-16.41-9.74c-1.41-2.74-0.91-6.11,0.2-8.87c0.57-1.42,1.32-2.61,2.23-3.69
		c-0.65,1.07-1.09,2.27-1.29,3.46c-0.88,5.44,2.57,10.09,6.96,12.87c4.24,2.69,10.11,5.09,14.81,2.1
		C594.33,680.92,594.76,680.59,595.15,680.22z"/>
	<path class="st7" d="M597.54,675.13c-0.12,1.99-0.99,3.76-2.39,5.09c-0.39,0.37-0.82,0.7-1.29,1c-4.7,2.99-10.57,0.59-14.81-2.1
		c-4.39-2.78-7.84-7.43-6.96-12.87c0.2-1.19,0.64-2.39,1.29-3.46c0.55-0.9,1.25-1.71,2.07-2.32c1.69-1.28,3.73-1.44,5.76-1.19h0.03
		c5.65,0.2,10.58,3.56,13.7,8.16C596.44,669.66,597.7,672.39,597.54,675.13z"/>
	<path class="st14" d="M629.46,683.01c-0.43,0.56-0.84,1.05-1.2,1.41c-1.73-1.92-4.08-3.31-6.57-3.7c-0.24-0.04-0.49-0.08-0.73-0.11
		c-0.01-0.05-0.01-0.1-0.01-0.15c-0.02-0.86,0.41-1.9,0.44-2.81c0.02-0.45,0.6-3.29,1.06-3.29c0.61,0.04,1.5,1.97,1.77,2.52
		c0.26,0.55,1.08,1.75,1.69,1.93c0.8,0.24,5.4-1.14,6.23-1.23C632.96,677.5,631.13,680.78,629.46,683.01z"/>
	<path class="st18" d="M629.46,683.01c-0.43,0.56-0.84,1.05-1.2,1.41c-1.73-1.92-4.08-3.31-6.57-3.7c-0.24-0.04-0.49-0.08-0.73-0.11
		c-0.01-0.05-0.01-0.1-0.01-0.15C622.05,679.96,624.94,679.32,629.46,683.01z"/>
	<path class="st19" d="M628.3,698.09c-2.1,2.18-4.96,3.85-7.98,4.05c-5.74,0.4-10.08-4.06-11.73-8.48c-0.59-1.6-0.83-3.2-0.65-4.55
		c0.31-2.42,1.64-4.69,3.59-6.41c3.27-2.56,6.43-2.51,9.43-2.09c0.24,0.03,0.49,0.07,0.73,0.11c2.49,0.39,4.84,1.78,6.57,3.7
		c0.44,0.47,0.83,0.98,1.18,1.52c0.79,1.2,1.35,2.53,1.6,3.89C631.58,692.78,630.39,695.91,628.3,698.09z"/>
	<path class="st20" d="M628.3,698.1c-2.1,2.18-4.95,3.84-7.98,4.04c-5.74,0.4-10.08-4.06-11.73-8.48c0.09-0.04,0.17-0.07,0.26-0.09
		c0.62-0.14,1.25,0.15,1.82,0.45c1.11,0.59,3.01,0.96,4.26,1.13c3.86,0.52,5.65-0.2,7.58-1.22c1.65-0.87,3.65-3.5,4.54-5.96
		c0.29-0.78,0.8-1.43,1.34-2.05c0.15-0.18,0.85,0.15,1.04,0.02c0.79,1.2,1.34,2.52,1.6,3.89
		C631.59,692.79,630.39,695.91,628.3,698.1z"/>
	<path class="st21" d="M616.92,698.55c1.01,0.33,2.06,0.55,3.12,0.66c0.3,0.03,0.68-0.16,0.88-0.37c0.22-0.22,0.38-0.57,0.37-0.88
		c-0.01-0.32-0.12-0.66-0.37-0.88c-0.08-0.07-0.17-0.13-0.25-0.2c-0.2-0.11-0.41-0.17-0.63-0.17c-0.05-0.01-0.09-0.01-0.14-0.02
		c0.11,0.01,0.22,0.03,0.33,0.04c-0.9-0.12-1.79-0.32-2.65-0.6c-0.3-0.1-0.7-0.03-0.96,0.13c-0.26,0.15-0.51,0.45-0.57,0.75
		C615.89,697.7,616.25,698.33,616.92,698.55L616.92,698.55z"/>
	<path class="st6" d="M580.37,665.54c0.85,1.43,1.62,2.91,2.3,4.43c0.23,0.51,1.02,0.68,1.47,0.39c0.53-0.34,0.63-0.92,0.39-1.47
		c-0.69-1.52-1.45-3-2.3-4.43c-0.29-0.48-0.98-0.7-1.47-0.39C580.27,664.38,580.07,665.02,580.37,665.54L580.37,665.54z"/>
	<path class="st6" d="M582.28,670.02c-1.41-0.63-2.88-1.01-4.42-1.11c-0.56-0.04-1.1,0.52-1.08,1.08c0.03,0.62,0.47,1.04,1.08,1.08
		c0.26,0.02,0.52,0.04,0.79,0.08c-0.1-0.01-0.19-0.03-0.29-0.04c0.52,0.07,1.04,0.18,1.54,0.32c0.25,0.07,0.5,0.15,0.75,0.24
		c0.11,0.04,0.22,0.08,0.34,0.13c0.03,0.01,0.07,0.03,0.1,0.04c0.07,0.03,0.04,0.02-0.09-0.04c0.06,0.01,0.14,0.06,0.2,0.09
		c0.27,0.12,0.53,0.19,0.83,0.11c0.25-0.07,0.52-0.26,0.64-0.49C582.91,671.02,582.83,670.27,582.28,670.02L582.28,670.02z"/>
	<path class="st6" d="M591.51,670.92c-1.34-0.35-2.65-0.78-3.94-1.29c-0.24-0.1-0.61-0.02-0.83,0.11c-0.22,0.13-0.44,0.39-0.49,0.64
		c-0.06,0.28-0.05,0.58,0.11,0.83c0.16,0.25,0.37,0.39,0.64,0.49c1.29,0.51,2.6,0.94,3.94,1.29c0.54,0.14,1.19-0.18,1.32-0.75
		C592.39,671.68,592.1,671.07,591.51,670.92L591.51,670.92z"/>
	<path class="st6" d="M584.05,672.33c0.95,1.62,2.05,3.14,3.27,4.56c0.37,0.43,1.15,0.41,1.52,0c0.42-0.46,0.39-1.07,0-1.52
		c-0.29-0.33-0.57-0.67-0.84-1.02c-0.03-0.04-0.07-0.08-0.1-0.13c-0.09-0.12,0.11,0.15,0.02,0.03c-0.06-0.08-0.13-0.17-0.19-0.25
		c-0.14-0.18-0.27-0.36-0.4-0.55c-0.51-0.71-0.99-1.45-1.43-2.21c-0.28-0.49-0.98-0.7-1.47-0.39
		C583.95,671.17,583.74,671.81,584.05,672.33L584.05,672.33z"/>
	<path class="st4" d="M628.22,750.01c-5.33,0.6-10.72,0.83-16.07,1.22c-0.96,0.07-0.96,1.57,0,1.5c5.35-0.39,10.73-0.62,16.07-1.22
		C629.17,751.4,629.18,749.9,628.22,750.01L628.22,750.01z"/>
	<path class="st4" d="M662.55,740.79c-8.66,3.62-17.58,6.65-26.86,8.19c-0.95,0.16-0.55,1.6,0.4,1.45
		c9.28-1.53,18.2-4.57,26.86-8.19C663.83,741.87,663.44,740.42,662.55,740.79L662.55,740.79z"/>
	<path class="st4" d="M667.45,743.14c-12.74,6.18-26.28,10.6-40.48,11.56c-0.96,0.07-0.97,1.57,0,1.5
		c14.47-0.99,28.24-5.46,41.24-11.77C669.07,744.01,668.31,742.72,667.45,743.14L667.45,743.14z"/>
	<path class="st4" d="M674.51,723.47c-10.76,7.69-23.51,10.99-36.45,12.71c-0.94,0.12-0.96,1.63,0,1.5
		c13.2-1.75,26.22-5.06,37.21-12.91C676.05,724.21,675.3,722.91,674.51,723.47L674.51,723.47z"/>
	<path class="st4" d="M671.22,730.35c-6.26,4.38-13.62,6.99-20.97,8.88c-8.65,2.22-17.54,3.42-26.44,3.98
		c-0.96,0.06-0.97,1.56,0,1.5c9.03-0.57,18.06-1.78,26.84-4.03c7.46-1.92,14.97-4.58,21.32-9.03
		C672.76,731.1,672.01,729.79,671.22,730.35L671.22,730.35z"/>
	<path class="st4" d="M664.55,748.77c-13.48,6.87-28.07,10.48-43.19,10.85c-0.96,0.02-0.97,1.52,0,1.5
		c15.39-0.37,30.23-4.06,43.94-11.05C666.17,749.63,665.41,748.34,664.55,748.77L664.55,748.77z"/>
	<path class="st4" d="M656.05,762.19c-5.75,2.91-12.23,4.56-18.5,5.87c-7.48,1.57-15.2,2.55-22.85,2.12c-0.96-0.05-0.96,1.45,0,1.5
		c7.78,0.43,15.64-0.59,23.24-2.18c6.41-1.34,12.99-3.05,18.86-6.03C657.67,763.05,656.91,761.75,656.05,762.19L656.05,762.19z"/>
	<path class="st4" d="M651.91,768.59c-5.57,2.95-12.22,4.16-18.36,5.23c-7.67,1.34-15.49,2.14-23.28,2.11c-0.97,0-0.97,1.5,0,1.5
		c7.92,0.03,15.87-0.8,23.67-2.17c6.28-1.1,13.02-2.37,18.72-5.38C653.52,769.44,652.76,768.14,651.91,768.59L651.91,768.59z"/>
	<path class="st4" d="M660.1,755.88c-4.21,2.48-9.17,3.81-13.87,5.01c-6.21,1.59-12.56,2.75-18.94,3.38c-3.19,0.32-6.4,0.5-9.6,0.41
		c-0.97-0.03-0.96,1.47,0,1.5c6.12,0.17,12.26-0.57,18.28-1.59c6.08-1.04,12.15-2.41,17.98-4.42c2.36-0.81,4.74-1.73,6.9-3
		C661.69,756.68,660.93,755.38,660.1,755.88L660.1,755.88z"/>
	<path class="st4" d="M641.06,776.9c-13.85,4.96-28.62,5.14-43.15,4.93c-0.97-0.01-0.97,1.49,0,1.5
		c14.66,0.21,29.59,0.02,43.55-4.98C642.36,778.02,641.98,776.57,641.06,776.9L641.06,776.9z"/>
	<path class="st13" d="M676.5,687.99c-4.66,1.1-8.96,1.1-15.85-3.2c-2.78-1.74-3.94-5.43-4.2-7.33c1.78,0.14,3.45,0.74,5.11,1.45
		c1.82,0.79,3.63,1.72,5.52,2.34c2.21,0.73,4.63,1.05,6.53,2.41c1.43,1.03,2.38,2.55,2.88,4.25
		C676.49,687.94,676.49,687.96,676.5,687.99z"/>
	<path class="st14" d="M680.07,685.68c-1.21,1.34-3.11,1.69-4.82,1.49c-2.4-0.28-4.84-0.71-7.19-1.29
		c-2.69-0.67-5.61-1.51-7.76-3.32c-1.63-1.47-2.91-3.2-3.62-5.29c-0.62-1.8-0.9-3.79-1.11-5.66c-0.43-3.94,0.86-9.17,5.5-9.86
		c2.26-0.34,4.07,0.9,5.17,2.66c0.71,1.13,1.12,2.47,1.18,3.77c0.05,1.15-0.13,2.32-0.37,3.44c-0.13,0.59-0.28,1.17-0.45,1.75
		c-0.09,0.34-0.16,0.94-0.31,1.38l-0.03,0.08l-0.14,0.29c-0.01,0.02-0.01,0.03-0.02,0.04h0.03c0.18-0.1,0.4-0.15,0.59-0.28
		c0.42-0.28,0.77-0.67,1.07-1.08c0.54-0.74,0.91-1.59,1.39-2.37c1.03-1.65,2.55-2.91,4.53-3.17c1.76-0.23,3.49,0.46,4.52,1.93
		c0.39,0.55,0.65,1.18,0.77,1.82c0,0.02,0,0.03,0.01,0.05c0.15,0.94-0.02,1.92-0.55,2.77c-0.89,1.44-2.49,2.18-3.96,2.88
		c-0.45,0.21-0.95,0.4-1.32,0.73c-0.34,0.3-0.4,0.33-0.12,0.56c0.44,0.35,1.62,0.09,2.13,0.08c1.57-0.06,3.2,0.28,4.36,1.33
		c0.21,0.18,0.4,0.39,0.58,0.62C681.18,682.41,681.27,684.35,680.07,685.68z"/>
	<path class="st18" d="M667.42,668.17c0.05,1.15-0.13,2.32-0.37,3.44c-0.13,0.59-0.28,1.17-0.45,1.75
		c-0.09,0.34-0.16,0.94-0.31,1.38l-0.03,0.08l-0.14,0.29c0,0-1.17,1.94-2.03,1.08c-0.86-0.86,2.98-7.54,2.14-11.78
		C666.95,665.53,667.36,666.87,667.42,668.17z"/>
	<path class="st22" d="M596.15,709.67c-0.6,3.24-3.06,5.56-5.86,7.06c-3.09,1.66-6.53,2.26-9.96,1.56c6.69-0.15,11.55-4.4,14.05-9.4
		c1.72-3.44,0.83-7.33,0.39-9.07C596.17,702.86,596.76,706.36,596.15,709.67z"/>
	<path class="st4" d="M643.02,782.48c-0.59,0.61-1.21,1.2-1.85,1.74c-1.9,1.62-4.23,2.59-6.53,3.5c-7.8,3.12-16.29,4.22-24.63,4.66
		c-11.4,0.59-22.88-0.08-34.04-2.54c-4.34-0.96-8.65-2.18-12.72-3.98c-3-1.32-5.32-4.11-7.39-6.58c1.07,1.14,8.75,8.54,30.66,10.11
		c23.77,1.7,43.46,0.85,56.48-6.9C643.02,782.49,643.02,782.48,643.02,782.48z"/>
	<path class="st18" d="M673.82,676.98c1.46-0.8,5.47-2.73,5.19-4.78c-0.01-0.05-0.01-0.1-0.01-0.15c0.15,0.94-0.02,1.92-0.55,2.77
		c-0.89,1.44-2.49,2.18-3.96,2.88c-0.45,0.21-0.95,0.4-1.32,0.73c-0.34,0.3-2.2,1.2-2.2,0.34S672.35,677.78,673.82,676.98z"/>
</g>
<g>
	<g>
		<path class="st23" d="M500.65,842.85c3.82,0,7.17,0.78,10.06,2.34c2.89,1.56,5.3,3.69,7.25,6.4c1.94,2.71,3.41,5.84,4.41,9.39
			c0.99,3.55,1.49,7.33,1.49,11.34l-0.05,34.28h-17.57v-35.44c0-3.59-1.28-13.05-9.58-13.05c-7.73,0-9.58,8.03-9.58,13.05v35.44
			h-20.13v-36.06c0-5.21-2.46-12.42-8.67-12.42c-8.59,0-10.44,9.45-10.44,13.05v35.44h-17.72v-61.58h13.67
			c1.97,0,3.56,1.6,3.56,3.56l0,0c1.13-2.14,4.57-4.29,6.6-4.86c2.02-0.58,4.49-0.87,7.41-0.87c4.14,0,7.73,0.91,10.79,2.72
			c3.05,1.81,5.54,4.29,7.46,7.44c0.26-0.45,0.86-1.21,1.81-2.29c0.95-1.08,2.27-2.21,3.97-3.42c1.7-1.2,3.81-2.25,6.33-3.13
			C494.24,843.3,497.21,842.85,500.65,842.85z"/>
		<path class="st23" d="M705.96,900.53c-3.27,4.17-7.8,6.93-13.58,8.28c-1.93,0.42-3.87,0.63-5.83,0.63c-3.02,0-5.8-0.31-8.35-0.94
			c-2.55-0.63-4.83-1.38-6.84-2.26c-2.01-0.88-3.69-1.76-5.06-2.62c-1.36-0.87-2.38-1.56-3.06-2.07l5.77-8.09
			c1.45-2.08,4.25-2.73,6.46-1.48c1.27,0.71,2.46,1.31,3.56,1.78c2.15,0.92,9.26,3.5,12.25-0.22c1.31-1.63,1.8-6.14-4.19-8.76
			c-1.28-0.56-6.92-3.08-9.6-4.26c-2.42-1.07-4.77-2.25-6.79-4.14c-3.21-3.18-4.98-7.32-5.3-12.42c-0.13-1.99,0.2-4.3,0.99-6.93
			c0.79-2.63,2.22-5.13,4.31-7.51c4.14-4.46,10.13-6.69,17.96-6.69c2.99,0,6,0.6,9.05,1.81c3.05,1.2,5.79,2.86,8.23,4.98l-6.16,7.92
			c-1.51,1.99-4.25,2.48-6.42,1.23c-0.01-0.01-0.02-0.01-0.03-0.02c-1.09-0.63-3.28-1.33-4.23-1.56c-2.11-0.51-7.18-0.7-7.14,4.03
			c0.01,1.12,0.42,2.08,1.25,2.86c0.83,0.79,1.96,1.48,3.37,2.07c1.41,0.59,2.99,1.2,4.72,1.81c2.05,0.71,4.16,1.53,6.33,2.48
			c2.17,0.95,4.18,2.16,6.04,3.64c1.86,1.48,3.38,3.35,4.55,5.61c1.17,2.26,1.76,5.1,1.76,8.5
			C710,892.78,708.66,896.91,705.96,900.53z"/>
		<path class="st23" d="M738.22,906.6H720.4v-86.95h12.88c2.73,0,4.93,2.21,4.93,4.93V906.6z"/>
		<path class="st23" d="M768.67,906.6H750.8v-61.58h12.93c2.73,0,4.93,2.21,4.93,4.93V906.6z"/>
		<path class="st23" d="M769.88,831.02c0,2.81-0.99,5.2-2.97,7.18c-1.98,1.98-4.37,2.97-7.18,2.97c-2.81,0-5.2-0.99-7.18-2.97
			c-1.98-1.98-2.97-4.37-2.97-7.18s0.99-5.2,2.97-7.18c1.98-1.98,4.37-2.97,7.18-2.97c2.81,0,5.2,0.99,7.18,2.97
			C768.89,825.82,769.88,828.21,769.88,831.02z"/>
		<path class="st23" d="M532.08,882.91c-0.31-10.44,0-37.72,0-37.72h14.19c2.73,0,4.93,2.21,4.93,4.93v31.13
			c0,5.21,3.46,12.42,9.67,12.42c8.59,0,10.44-9.45,10.44-13.05v-35.44h12.78c2.73,0,4.93,2.21,4.93,4.93v56.65h-13.67
			c-1.97,0-3.56-1.6-3.56-3.56v0c-1.13,2.14-4.57,4.29-6.6,4.86c-2.02,0.58-4.49,0.87-7.41,0.87
			C537.93,908.94,532.33,891.36,532.08,882.91z"/>
		<path class="st23" d="M656.68,873.75c0-0.14,0-0.28,0-0.43c-0.02-4.05-0.77-9.46-3.21-15.08c-1.95-4.5-7.7-15.58-24.78-15.58
			c-8.71,0-16.16,3.26-22.35,9.79c-6.19,6.53-9.28,14.39-9.28,23.59c0,8.45,2.79,15.87,8.38,22.25c5.49,6.27,12.28,9.92,20.35,10.97
			c0,0,0,0.01,0,0.01c0.08,0.01,0.16,0.01,0.24,0.02c0.06,0.01,0.12,0.02,0.18,0.03c0.1,0.01,0.2,0.01,0.3,0.01
			c0.72,0.06,1.44,0.1,2.16,0.1c0.2,0,0.38-0.01,0.58-0.02c2.28-0.02,5.57-0.3,8.04-0.87c1.7-0.39,4.56-1.44,6.57-2.32
			c2.01-0.88,3.69-1.76,5.06-2.62c1.36-0.87,2.38-1.56,3.06-2.07l-5.77-8.09c-1.45-2.08-4.25-2.73-6.46-1.48
			c-1.27,0.71-2.48,1.19-3.63,1.54c-1.15,0.35-2.74,0.73-4.1,0.71c-4.94-0.05-8.2-1.38-11.34-3.84c-3.14-2.46-5.04-5.39-5.69-8.79
			h33.86C653.17,881.59,656.69,878.08,656.68,873.75z M614.55,868.27c0.71-2.75,5.1-9.72,12.92-9.72c8.08,0,12,6.09,12,9.72H614.55z
			"/>
	</g>
	<g>
		<path class="st2" d="M482.31,978.64c-2.26-1.8-4.71-3.27-7.35-4.42s-5.2-2.16-7.7-3.02c-2.11-0.74-4.02-1.47-5.74-2.2
			c-1.72-0.72-3.08-1.56-4.1-2.52c-1.02-0.96-1.52-2.12-1.52-3.48c0-1.41,0.57-2.64,1.7-3.69c1.13-1.05,2.4-1.76,3.81-2.11
			c1.64-0.43,3.27-0.44,4.89-0.03c1.62,0.41,3.09,1,4.42,1.76c0.17,0.1,0.34,0.2,0.52,0.31c2.32,1.41,5.35,0.83,6.99-1.34l6.84-9.01
			c-2.97-2.58-6.31-4.6-10.01-6.06c-3.71-1.46-7.38-2.2-11.01-2.2c-9.53,0-16.81,2.71-21.85,8.14c-2.54,2.89-4.29,5.94-5.24,9.14
			c-0.96,3.2-1.36,6.01-1.2,8.43c0.39,6.21,2.54,11.25,6.44,15.11c2.46,2.3,5.21,3.98,8.26,5.04c3.04,1.05,6.19,1.89,9.43,2.52
			c1.56,0.27,3.11,0.76,4.66,1.47c1.54,0.7,2.85,1.66,3.92,2.87c1.07,1.21,1.61,2.73,1.61,4.57c0,2.11-0.58,3.69-1.73,4.74
			c-1.15,1.05-2.54,1.76-4.16,2.11c-1.62,0.35-3.17,0.53-4.66,0.53c-2.77,0-5.47-0.56-8.08-1.67c-1.49-0.63-3.09-1.44-4.82-2.43
			c-2.4-1.38-5.45-0.7-7.03,1.57l-6.49,9.32c0.82,0.63,2.06,1.47,3.72,2.52c1.66,1.05,3.71,2.12,6.15,3.19
			c2.44,1.07,5.21,1.99,8.32,2.75c3.1,0.76,6.49,1.14,10.16,1.14c2.38,0,4.74-0.25,7.09-0.76c7.03-1.64,12.53-5,16.52-10.07
			c3.28-4.41,4.92-9.43,4.92-15.05c0-4.14-0.71-7.58-2.14-10.34C486.42,982.71,484.58,980.44,482.31,978.64z"/>
		<path class="st2" d="M753.87,952.61c-7.05-7.87-15.98-11.8-26.8-11.8c-9.96,0-17.65,2.62-23.07,7.85c0-2.94-2.39-5.33-5.33-5.33
			h-13.65v111.28h13.61c2.96,0,5.36-2.4,5.36-5.36v-35.63c5.43,5.23,13.12,7.85,23.07,7.85c10.81,0,19.75-3.93,26.8-11.8
			c7.05-7.87,10.57-17.36,10.57-28.49C764.44,970,760.92,960.48,753.87,952.61z M739.4,997.21c-4.04,4.33-8.93,6.5-14.67,6.5
			c-5.74,0-10.64-2.17-14.7-6.5c-4.06-4.33-6.09-9.57-6.09-15.7c0-6.17,2.03-11.43,6.09-15.78c4.06-4.35,8.96-6.53,14.7-6.53
			c5.74,0,10.63,2.18,14.67,6.53c4.04,4.35,6.06,9.61,6.06,15.78C745.46,987.64,743.44,992.88,739.4,997.21z"/>
		<path class="st2" d="M583.03,943.32c-2.32,0-4.38,1.51-5.08,3.73l-9.83,31.09l-10.28-22.98c-0.79-1.78-2.56-2.92-4.5-2.92H539.5
			l-11.59,25.9l-9.83-31.09c-0.7-2.22-2.76-3.73-5.08-3.73h-17.71l24.51,76.41h7.75c1.97,0,3.75-1.17,4.53-2.98l10.9-25.3
			l5.03-11.74l5.03,11.74l12.18,28.28h7.4c2.14,0,4.04-1.39,4.7-3.43l23.41-72.98H583.03z"/>
		<g>
			<path class="st2" d="M652.85,1011.34c-1.89,1.51-3.79,3.02-6.03,4.2c-3.96,2.18-9.47,4.2-16.36,4.2
				c-17.22,0-26.69-9.07-26.69-21.83c0-15.28,10.57-26.9,47.36-26.03c0-8.56-5.17-12.09-12.92-12.09c-6.44,0-9.57,2.63-11,4.77
				c-0.98,1.45-2.64,2.29-4.39,2.29h-16.47c1.89-14.11,13.78-26.03,33.58-26.03c17.91,0,31,12.76,31,30.23v42.5
				c0,2.96-2.4,5.36-5.36,5.36h-12.73L652.85,1011.34z M650.6,987.4c-24.51-0.95-28.62,4.04-28.62,10.15
				c0,3.82,4.77,7.42,10.95,7.42c10.6,0,17.67-5.96,17.67-14.51V987.4z"/>
		</g>
	</g>
</g>
</svg>
